<?xml version="1.0" encoding="UTF-8"?>
<svg version="1.1" xmlns="http://www.w3.org/2000/svg" width="413" height="385">
<path d="M0 0 C72.93 0 145.86 0 221 0 C221.061875 21.181875 221.12375 42.36375 221.1875 64.1875 C221.22846802 74.15940552 221.22846802 74.15940552 221.27026367 84.33276367 C221.28381348 92.55334473 221.28381348 92.55334473 221.28633118 96.42158508 C221.2908891 99.08000956 221.30016705 101.73798085 221.31672668 104.39631653 C221.51092021 137.0511726 219.24562703 169.86378593 196 195 C195.39542969 195.66128906 194.79085937 196.32257813 194.16796875 197.00390625 C192.8396921 198.39681923 191.4288947 199.71050966 190 201 C189.34 201 188.68 201 188 201 C188 201.66 188 202.32 188 203 C168.97489762 218.04376556 145.71353772 225.65299229 122.625 231.9375 C121.85865234 232.14922852 121.09230469 232.36095703 120.30273438 232.57910156 C111.17288711 234.95675034 104.05047964 233.47354884 95.125 230.875 C93.45824219 230.3963147 93.45824219 230.3963147 91.7578125 229.90795898 C60.61615006 220.84524863 30.0846768 208.19305804 13.1328125 178.7578125 C0.36651601 154.59499383 -0.47089066 129.14442608 -0.30384064 102.32770538 C-0.28643209 99.06959563 -0.28593409 95.81149525 -0.28381348 92.55334473 C-0.26822847 83.09802149 -0.22634544 73.64275628 -0.1875 64.1875 C-0.125625 43.005625 -0.06375 21.82375 0 0 Z " fill="#1F1D1E" transform="translate(96,146)"/>
<path d="M0 0 C1.18335938 0.00483398 1.18335938 0.00483398 2.390625 0.00976562 C3.62039062 0.02233398 3.62039062 0.02233398 4.875 0.03515625 C5.69484375 0.03966797 6.5146875 0.04417969 7.359375 0.04882812 C8.8828272 0.05754068 10.40627002 0.06830705 11.9296875 0.08178711 C13.57807864 0.09523408 15.22655401 0.09765625 16.875 0.09765625 C18.54166667 0.09765625 20.20833333 0.09765625 21.875 0.09765625 C21.875 0.75765625 21.875 1.41765625 21.875 2.09765625 C22.72578125 1.77667969 23.5765625 1.45570312 24.453125 1.125 C31.901979 -1.11135685 40.16870504 -1.15151236 47.3125 2.09765625 C51.57535921 4.53057097 54.46780018 7.62272971 57.40234375 11.5234375 C57.88832031 12.04292969 58.37429687 12.56242188 58.875 13.09765625 C59.865 13.09765625 60.855 13.09765625 61.875 13.09765625 C61.875 12.43765625 61.875 11.77765625 61.875 11.09765625 C64.375 9.47265625 64.375 9.47265625 66.875 8.09765625 C67.875 11.09765625 67.875 11.09765625 66.875 14.09765625 C67.53886719 14.195625 68.20273438 14.29359375 68.88671875 14.39453125 C78.20877888 15.97315749 78.20877888 15.97315749 81.875 20.09765625 C83.1875 23.34765625 83.1875 23.34765625 83.875 26.09765625 C84.72191406 25.85982422 84.72191406 25.85982422 85.5859375 25.6171875 C92.9152294 23.9537134 98.87203849 25.04165696 105.55078125 28.3203125 C108.36773773 29.26245425 110.05259103 28.89192709 112.875 28.09765625 C112.36896008 30.26639877 111.87516187 32.09733252 110.875 34.09765625 C111.205 35.08765625 111.535 36.07765625 111.875 37.09765625 C114.07072758 38.16279567 114.07072758 38.16279567 116.6875 38.97265625 C121.03400011 40.59327986 123.44842854 41.98303508 125.875 46.09765625 C127.40197948 50.67859468 127.82151972 54.80479383 125.96875 59.29296875 C123.36497225 63.81619804 121.03304163 66.59713505 115.875 68.09765625 C105.80106989 68.93258796 105.80106989 68.93258796 101.37890625 67.015625 C98.1551778 65.83375888 96.21217051 66.41677259 92.875 67.09765625 C90.66807214 67.1867721 88.45872032 67.2278289 86.25 67.22265625 C85.14398438 67.22523437 84.03796875 67.2278125 82.8984375 67.23046875 C79.875 67.09765625 79.875 67.09765625 77.65234375 66.49609375 C75.62447721 65.83858776 75.62447721 65.83858776 73.0625 67.59765625 C70.53120359 69.43275575 68.36997628 71.53114774 66.17578125 73.75390625 C65.55485596 74.38103516 64.93393066 75.00816406 64.29418945 75.65429688 C63.82585693 76.13060547 63.35752441 76.60691406 62.875 77.09765625 C63.96588676 77.09099442 63.96588676 77.09099442 65.07881165 77.084198 C71.97723502 77.04390217 78.87564051 77.01356146 85.7741518 76.99403191 C89.31961963 76.98365361 92.86498913 76.96960519 96.41040039 76.94677734 C100.49886955 76.92062164 104.58723758 76.91113433 108.67578125 76.90234375 C109.93143387 76.89202118 111.18708649 76.88169861 112.48078918 76.87106323 C119.83601116 76.87013764 126.69519268 77.47638164 133.875 79.09765625 C134.205 80.41765625 134.535 81.73765625 134.875 83.09765625 C129.19558724 85.71532798 123.46347256 87.45304114 117.4375 89.09765625 C110.00014199 91.12120062 110.00014199 91.12120062 102.75 93.71484375 C98.64963308 95.30341879 94.67272671 95.82753618 90.3125 96.22265625 C89.53672607 96.30193359 88.76095215 96.38121094 87.96166992 96.46289062 C81.71978095 97.07975112 75.47303675 97.4726041 69.20703125 97.75390625 C65.52679887 98.13357852 62.39645749 98.98797206 58.875 100.09765625 C58.875 101.41765625 58.875 102.73765625 58.875 104.09765625 C59.55304688 104.00226563 60.23109375 103.906875 60.9296875 103.80859375 C68.80741482 102.8702495 75.22276207 103.81086703 82.8125 105.91015625 C86.04886116 106.10830081 88.0369504 105.57577375 91.125 104.66015625 C100.26048137 101.98123806 109.0396973 102.33178952 117.875 106.09765625 C122.25365251 109.04523697 125.84949516 112.1410122 127.875 117.09765625 C128.44163783 121.46886235 128.1862927 123.54770582 126 127.41015625 C121.78253748 131.85270806 115.93738303 131.9362486 110.1328125 132.2421875 C104.71756913 132.32656098 99.43229728 131.93479147 94.06640625 131.21875 C91.74711331 131.09058943 90.10750632 131.50720574 87.875 132.09765625 C86.23114953 132.18853579 84.58385286 132.22772976 82.9375 132.22265625 C82.10347656 132.22523438 81.26945313 132.2278125 80.41015625 132.23046875 C77.875 132.09765625 77.875 132.09765625 75.46484375 131.58984375 C72.3794437 131.00347813 69.51316265 131.038999 66.375 131.09765625 C60.33242832 131.21060151 60.33242832 131.21060151 57.34375 130.47265625 C54.79994736 129.89159017 54.79994736 129.89159017 52.18359375 131.01953125 C47.71563593 132.47544195 43.60407412 132.38904493 38.9375 132.34765625 C38.06931641 132.35539063 37.20113281 132.363125 36.30664062 132.37109375 C32.31006464 132.35901038 28.73351507 132.20729076 24.8984375 131.02734375 C21.20990041 129.89314242 20.31005508 130.58958329 16.875 132.09765625 C12.86832402 132.29152767 9.4505351 132.19357877 5.5 131.53515625 C2.30140712 131.14911918 0.02281186 131.25122601 -3.125 131.66015625 C-6.63389303 132.09479255 -8.24930746 132.0612213 -11.75 131.03515625 C-15.4062393 130.01953422 -17.14983283 130.51374008 -20.703125 131.57421875 C-28.9216798 133.35048705 -37.64776181 132.35545685 -45.72265625 130.33984375 C-48.7171725 130.03795756 -50.38932808 130.91594987 -53.125 132.09765625 C-57.30262963 132.52631738 -61.36647025 132.22407788 -65.5 131.53515625 C-68.22410122 130.87075237 -68.22410122 130.87075237 -71.125 132.09765625 C-76.00656423 132.61017848 -79.97585989 132.60838519 -84.5 130.59765625 C-88.40295542 126.88055585 -90.86411997 123.22821661 -91.3203125 117.75390625 C-91.09026575 113.69425781 -90.44839594 111.53519193 -88 108.22265625 C-80.85599538 102.94230501 -74.8897982 102.33869328 -66.125 103.09765625 C-64.11755385 103.74155407 -62.11554876 104.40327878 -60.125 105.09765625 C-57.10008057 104.83688733 -54.32458841 104.46908844 -51.421875 103.5703125 C-42.60627884 101.75621873 -32.31574212 102.32715831 -23.91015625 105.44140625 C-22.12913034 106.21266926 -22.12913034 106.21266926 -20.125 106.09765625 C-20.125 104.11765625 -20.125 102.13765625 -20.125 100.09765625 C-21.40375 99.99453125 -22.6825 99.89140625 -24 99.78515625 C-27.46509027 99.41220001 -30.52521441 98.7213261 -33.82421875 97.609375 C-38.92603179 96.0345373 -43.75554379 95.54303034 -49.0625 95.22265625 C-58.81923687 94.47462519 -67.7657962 92.34824319 -77.13818359 89.63769531 C-80.48603717 88.72771103 -83.8829081 88.15453399 -87.3125 87.65234375 C-89.56465914 86.96310539 -90.60258667 85.85794666 -92.125 84.09765625 C-85.27775332 77.25040957 -67.53021857 78.98344123 -58.640625 78.96484375 C-55.125 79.09765625 -55.125 79.09765625 -52.14453125 79.59765625 C-48.57874586 80.18810972 -45.17561711 80.22994811 -41.5625 80.22265625 C-40.28246094 80.22523437 -39.00242188 80.2278125 -37.68359375 80.23046875 C-34.68192156 80.11844147 -32.03413811 79.8012098 -29.125 79.09765625 C-30.70643471 77.65806778 -32.29022779 76.2210698 -33.875 74.78515625 C-34.75671875 73.98464844 -35.6384375 73.18414062 -36.546875 72.359375 C-38.67949328 70.48848714 -40.82687943 68.75681339 -43.125 67.09765625 C-43.970625 67.59265625 -44.81625 68.08765625 -45.6875 68.59765625 C-50.78783919 70.83556018 -56.07272235 70.19828048 -61.53125 70.05859375 C-64.57991356 70.0917314 -66.71153785 70.34614887 -69.5625 71.28515625 C-73.58013427 72.2014588 -75.58829096 71.99123858 -79.29296875 70.33984375 C-82.74425509 67.99973915 -84.59374592 64.92226321 -86.125 61.09765625 C-86.80097927 56.74134538 -86.49950597 54.80505641 -84.4375 50.91015625 C-79.9520782 45.45491352 -75.67965417 43.31957292 -69.125 41.09765625 C-69.640625 40.33453125 -70.15625 39.57140625 -70.6875 38.78515625 C-71.161875 37.89828125 -71.63625 37.01140625 -72.125 36.09765625 C-71.795 35.10765625 -71.465 34.11765625 -71.125 33.09765625 C-65.375 34.97265625 -65.375 34.97265625 -63.125 36.09765625 C-63.125 35.43765625 -63.125 34.77765625 -63.125 34.09765625 C-61.515625 32.84375 -61.515625 32.84375 -59.375 31.53515625 C-58.67890625 31.10074219 -57.9828125 30.66632812 -57.265625 30.21875 C-55.125 29.09765625 -55.125 29.09765625 -52.9765625 28.7109375 C-50.94085286 28.26810099 -50.94085286 28.26810099 -50.0703125 26.20703125 C-49.79960937 25.4284375 -49.52890625 24.64984375 -49.25 23.84765625 C-47.081598 18.55272113 -44.29540693 15.51117703 -38.9609375 13.1328125 C-37.0372663 12.39529192 -35.08283207 11.73901503 -33.125 11.09765625 C-33.62 8.62265625 -33.62 8.62265625 -34.125 6.09765625 C-29.83693127 6.57410833 -27.85852513 7.75668109 -25.125 11.09765625 C-25.125 11.75765625 -25.125 12.41765625 -25.125 13.09765625 C-21.88011206 13.76803718 -21.88011206 13.76803718 -18.125 13.09765625 C-16.29974108 11.25484676 -14.96820905 9.29975788 -13.53515625 7.140625 C-10.06890098 2.11887568 -5.99545897 -0.04364973 0 0 Z M4.4375 40.03515625 C1.83800543 41.84666564 -0.10119347 43.08972074 -3.125 44.09765625 C-1.57833439 47.56154277 0.48890092 50.28389452 2.875 53.22265625 C3.57625 54.09148438 4.2775 54.9603125 5 55.85546875 C6.83294434 58.11482158 6.83294434 58.11482158 8.875 60.09765625 C9.535 52.50765625 10.195 44.91765625 10.875 37.09765625 C8.04159487 37.09765625 6.74367131 38.4257592 4.4375 40.03515625 Z M31.75 40.59765625 C29.81125 41.09265625 27.8725 41.58765625 25.875 42.09765625 C26.535 47.37765625 27.195 52.65765625 27.875 58.09765625 C28.535 57.10765625 29.195 56.11765625 29.875 55.09765625 C31.01522976 53.42715097 32.16163002 51.76084899 33.3125 50.09765625 C33.90933594 49.23140625 34.50617188 48.36515625 35.12109375 47.47265625 C36.875 45.09765625 36.875 45.09765625 38.59765625 43.47265625 C40.21530538 42.04412715 40.21530538 42.04412715 39.875 39.09765625 C37.03012343 39.09765625 34.50336763 39.89466877 31.75 40.59765625 Z M-20 48.47265625 C-24.4953375 50.81023175 -29.14880486 51.35689165 -34.125 52.09765625 C-34.455 53.08765625 -34.785 54.07765625 -35.125 55.09765625 C-34.0628125 55.62875 -33.000625 56.15984375 -31.90625 56.70703125 C-29.07291667 58.12369792 -26.23958333 59.54036458 -23.40625 60.95703125 C-22.70371094 61.30572266 -22.00117188 61.65441406 -21.27734375 62.01367188 C-19.80278142 62.75630535 -18.33690752 63.51637321 -16.87890625 64.29101562 C-14.98973479 65.28342848 -13.05984596 66.19753226 -11.125 67.09765625 C-10.465 66.76765625 -9.805 66.43765625 -9.125 66.09765625 C-11.765 59.82765625 -14.405 53.55765625 -17.125 47.09765625 C-18.37812157 46.99909564 -18.37812157 46.99909564 -20 48.47265625 Z M51.875 51.09765625 C49.11797811 55.89247693 48.34171627 59.68374757 47.875 65.09765625 C52.33682436 63.7869126 55.87118757 62.02699614 59.75 59.47265625 C60.71679688 58.84101562 61.68359375 58.209375 62.6796875 57.55859375 C63.40414062 57.07648437 64.12859375 56.594375 64.875 56.09765625 C64.545 54.77765625 64.215 53.45765625 63.875 52.09765625 C59.915 51.76765625 55.955 51.43765625 51.875 51.09765625 Z " fill="#211D1E" transform="translate(187.125,-0.09765625)"/>
<path d="M0 0 C9.57 0 19.14 0 29 0 C29 27.39 29 54.78 29 83 C58.7 83 88.4 83 119 83 C119 91.25 119 99.5 119 108 C89.3 108 59.6 108 29 108 C29 144.63 29 181.26 29 219 C16.49969674 222.12507582 11.59396869 222.31256248 0 219 C0 182.37 0 145.74 0 108 C-29.7 108 -59.4 108 -90 108 C-90 99.75 -90 91.5 -90 83 C-60.3 83 -30.6 83 0 83 C0 55.61 0 28.22 0 0 Z " fill="#EC1B23" transform="translate(192,152)"/>
<path d="M0 0 C28.38 0 56.76 0 86 0 C86 25.74 86 51.48 86 78 C57.62 78 29.24 78 0 78 C0 52.26 0 26.52 0 0 Z " fill="#FAFAFB" transform="translate(225,152)"/>
<path d="M0 0 C28.38 0 56.76 0 86 0 C86 25.74 86 51.48 86 78 C57.62 78 29.24 78 0 78 C0 52.26 0 26.52 0 0 Z " fill="#FCFCFC" transform="translate(102,152)"/>
<path d="M0 0 C2.49675668 0.98333671 2.49675668 0.98333671 5 1 C6.2375 0.2884375 6.2375 0.2884375 7.5 -0.4375 C13.4235704 -3.08195107 20.06070624 -2.98646755 26.33984375 -1.4140625 C33.2121389 1.55259165 37.9465663 7.91984945 42 14 C42.928125 13.7525 42.928125 13.7525 43.875 13.5 C54.47808149 11.80350696 54.47808149 11.80350696 58.91015625 13.90625 C62.5375848 16.68698147 63.98357657 19.62937926 65 24 C65.804375 23.835 66.60875 23.67 67.4375 23.5 C75.29609197 22.39703972 81.25738644 22.36742786 88 27 C90.48661592 29.56682933 91.20979654 31.58290397 92 35 C93.216875 35.226875 94.43375 35.45375 95.6875 35.6875 C100.02773685 36.81303211 102.40816616 38.19324404 105 42 C105.69915057 45.15763905 105.69231633 47.84166437 105 51 C103.01983758 54.06605794 101.55496425 55.50141427 98.05078125 56.625 C92.42828277 57.59404821 87.89696852 56.37013072 82.578125 54.49609375 C79.36246162 53.87732216 77.9422179 54.67065669 75 56 C68.63576833 56.98630018 63.9306635 56.18033945 58.68359375 52.421875 C55.27602432 49.54402054 53.30321476 47.05114449 52.0625 42.75 C50.27854611 39.70946315 50.27854611 39.70946315 47.16796875 39.5390625 C44.86018174 39.42828872 42.55142771 39.33629332 40.2421875 39.26171875 C34.95296132 38.83475712 31.88069077 36.88069077 28.125 33.125 C26.71000435 30.45223045 26.33950779 27.98766854 26 25 C25.46890625 25.27714844 24.9378125 25.55429687 24.390625 25.83984375 C23.68421875 26.20207031 22.9778125 26.56429687 22.25 26.9375 C21.55390625 27.29714844 20.8578125 27.65679687 20.140625 28.02734375 C14.68324718 30.50706469 8.90109509 30.75757302 3 30 C0.45440583 28.86219655 -1.73468282 27.57738699 -4.02734375 25.99609375 C-5.93136506 24.81987084 -5.93136506 24.81987084 -8 25.16015625 C-10.3498617 26.14691458 -12.07498094 27.40692114 -14.0625 29 C-18.64519541 32.65911956 -21.5493485 33.04328223 -27.375 32.75 C-32.64076356 32.59920597 -32.64076356 32.59920597 -37 35.375 C-37.66 36.24125 -38.32 37.1075 -39 38 C-43.71133028 40.67399827 -49.01249401 40.6806318 -54.24609375 39.48828125 C-54.82488281 39.32714844 -55.40367187 39.16601562 -56 39 C-55.94779297 39.87011719 -55.94779297 39.87011719 -55.89453125 40.7578125 C-55.7138655 45.97130987 -56.01362654 49.5204398 -59 54 C-63.07307504 58.07307504 -67.94202236 58.94941284 -73.49609375 59.0859375 C-75.99372794 59.07059891 -78.49134571 59.03368656 -80.98828125 58.97265625 C-83.92368361 58.77889393 -83.92368361 58.77889393 -86 60 C-90.03366277 60.5378217 -91.51619826 60.36553909 -94.8125 57.875 C-97.25055207 54.67070299 -98 53.01064998 -98 49 C-96.4278598 44.87313198 -93.93230007 42.84252766 -90.05078125 40.78125 C-86.46992237 39.41711328 -82.80290423 39.17246731 -79 39 C-78.938125 38.113125 -78.87625 37.22625 -78.8125 36.3125 C-77.75818807 32.01415135 -76.53300735 30.66778106 -73 28 C-71.28234874 27.5192737 -69.55140435 27.08453307 -67.8125 26.6875 C-65.18759952 26.09313606 -65.18759952 26.09313606 -63 25 C-61.78841351 21.50853434 -61.78841351 21.50853434 -61.55078125 19.0703125 C-60.52534139 15.21582224 -57.17709269 13.16551837 -54 11 C-47.6245243 7.81226215 -38.54038883 10.28448818 -32 12 C-31.72027344 11.40832031 -31.44054687 10.81664062 -31.15234375 10.20703125 C-24.55875779 -2.78932951 -12.99919325 -6.37215355 0 0 Z " fill="#FAFAFA" transform="translate(204,7)"/>
<path d="M0 0 C28.38 0 56.76 0 86 0 C86 17.51093852 86 17.51093852 84.8125 23.9375 C84.68157959 24.67983887 84.55065918 25.42217773 84.41577148 26.18701172 C82.41022636 36.88552238 79.35585823 47.47847425 74 57 C73.67 57 73.34 57 73 57 C73 44.79 73 32.58 73 20 C71.35 20 69.7 20 68 20 C68 17.36 68 14.72 68 12 C51.83 12 35.66 12 19 12 C19 14.64 19 17.28 19 20 C17.35 20 15.7 20 14 20 C14 33.53 14 47.06 14 61 C22.25 61 30.5 61 39 61 C39 61.99 39 62.98 39 64 C42.3 64 45.6 64 49 64 C49 63.01 49 62.02 49 61 C56.26 61 63.52 61 71 61 C54.80520549 85.29219176 27.91722732 97.79617171 0 104 C0 69.68 0 35.36 0 0 Z " fill="#F9F9F9" transform="translate(225,265)"/>
<path d="M0 0 C28.38 0 56.76 0 86 0 C86 34.32 86 68.64 86 104 C65.78085514 99.5068567 44.44539857 91.21740752 29 77 C28.18789062 76.25621094 27.37578125 75.51242187 26.5390625 74.74609375 C21.84182955 70.25407972 19.35877434 66.8778551 16 61 C23.26 61 30.52 61 38 61 C38 61.99 38 62.98 38 64 C41.3 64 44.6 64 48 64 C48 63.01 48 62.02 48 61 C56.25 61 64.5 61 73 61 C73 47.47 73 33.94 73 20 C71.02 20 69.04 20 67 20 C67 17.36 67 14.72 67 12 C50.83 12 34.66 12 18 12 C18 14.64 18 17.28 18 20 C16.35 20 14.7 20 13 20 C13 31.88 13 43.76 13 56 C1.60722644 40.80963525 0 18.25927165 0 0 Z " fill="#FAFAFA" transform="translate(102,265)"/>
<path d="M0 0 C0.66 -0.33 1.32 -0.66 2 -1 C4.0236878 -0.93612463 6.04534539 -0.79958414 8.0625 -0.625 C9.80273438 -0.47611328 9.80273438 -0.47611328 11.578125 -0.32421875 C15.72583419 0.06877196 19.86275216 0.50914009 24 1 C24 3.31 24 5.62 24 8 C25.65 8 27.3 8 29 8 C29 21.86 29 35.72 29 50 C20.75 50 12.5 50 4 50 C4 50.99 4 51.98 4 53 C0.7 53 -2.6 53 -6 53 C-6 52.01 -6 51.02 -6 50 C-14.25 50 -22.5 50 -31 50 C-31 36.14 -31 22.28 -31 8 C-29.35 8 -27.7 8 -26 8 C-26 5.69 -26 3.38 -26 1 C-23.81347261 0.66034526 -21.62571975 0.32857523 -19.4375 0 C-18.21933594 -0.185625 -17.00117188 -0.37125 -15.74609375 -0.5625 C-10.23838149 -1.20573647 -5.40947305 -1.08189461 0 0 Z " fill="#221E20" transform="translate(146,164)"/>
<path d="M0 0 C0.66 -0.33 1.32 -0.66 2 -1 C6.92635987 -1.1948622 11.57082592 -0.74158843 16.4375 0 C18.29181641 0.2784375 18.29181641 0.2784375 20.18359375 0.5625 C21.11300781 0.706875 22.04242188 0.85125 23 1 C23 3.64 23 6.28 23 9 C24.65 9 26.3 9 28 9 C28 22.53 28 36.06 28 50 C20.08 50 12.16 50 4 50 C4 50.99 4 51.98 4 53 C0.7 53 -2.6 53 -6 53 C-6 52.01 -6 51.02 -6 50 C-14.25 50 -22.5 50 -31 50 C-31 36.14 -31 22.28 -31 8 C-29.35 8 -27.7 8 -26 8 C-26 5.69 -26 3.38 -26 1 C-23.81347261 0.66034526 -21.62571975 0.32857523 -19.4375 0 C-18.21933594 -0.185625 -17.00117188 -0.37125 -15.74609375 -0.5625 C-10.23838149 -1.20573647 -5.40947305 -1.08189461 0 0 Z " fill="#211D1E" transform="translate(270,164)"/>
<path d="M0 0 C7.96768273 5.82694038 14.61162435 12.80198293 16.73046875 22.703125 C17.28793017 27.45366581 17.14319277 32.22690759 17 37 C11.61229547 39.13263304 9.66902909 38.92887349 4.203125 36.72290039 C0.48884947 35.50415373 -3.12365335 35.56546567 -7 35.625 C-7.75539062 35.61339844 -8.51078125 35.60179687 -9.2890625 35.58984375 C-13.35049806 35.61077898 -16.35200796 36.02056197 -20.0625 37.7109375 C-23.55663727 39.17584682 -23.86065553 39.04793565 -27.78125 37.69921875 C-28.43996094 37.39806152 -29.09867188 37.0969043 -29.77734375 36.78662109 C-34.18552413 35.22652035 -38.88137518 35.69430685 -43.5 35.8125 C-45.01980469 35.83280273 -45.01980469 35.83280273 -46.5703125 35.85351562 C-49.04744404 35.88856937 -51.52342927 35.93770236 -54 36 C-54.03061725 34.26313255 -54.05230464 32.52610644 -54.0703125 30.7890625 C-54.08336426 29.82178223 -54.09641602 28.85450195 -54.10986328 27.85791016 C-53.73584143 18.12835515 -48.15244314 9.72739057 -41.25 3.1875 C-29.86283465 -6.01641184 -12.8165152 -7.37740767 0 0 Z " fill="#FAFAFA" transform="translate(225,70)"/>
<path d="M0 0 C5.31561437 0.68011228 10.27779855 2.00345302 14 6 C15.52539477 11.32723747 15.81540033 16.47829823 16 22 C16.04382813 22.97066406 16.08765625 23.94132812 16.1328125 24.94140625 C16.20868486 28.2310152 16.04559164 30.86322508 15 34 C14.03320312 34.15855469 13.06640625 34.31710938 12.0703125 34.48046875 C0.18619085 36.55498844 -8.8485039 39.63387699 -17 49 C-17.66 48.01 -18.32 47.02 -19 46 C-19.99 47.32 -20.98 48.64 -22 50 C-29.36352823 48.17217384 -34.25148091 44.84613528 -40 40 C-41.485 38.948125 -41.485 38.948125 -43 37.875 C-45.44003066 35.58747126 -45.83450591 34.30988188 -46 31 C-45.5625 28.6875 -45.5625 28.6875 -45 27 C-45.763125 27.825 -46.52625 28.65 -47.3125 29.5 C-50 32 -50 32 -53 32 C-52.38125 31.4225 -51.7625 30.845 -51.125 30.25 C-48.02199944 25.50423444 -47.67334041 20.55505839 -47 15 C-46.2265625 15.04640625 -45.453125 15.0928125 -44.65625 15.140625 C-37.94754049 15.37310503 -32.48439641 15.20470392 -27 11 C-26.34 10.01 -25.68 9.02 -25 8 C-22.2421875 7.84765625 -22.2421875 7.84765625 -18.875 8.0625 C-12.90723625 8.2009785 -8.83310244 7.57072494 -4 4 C-3.278125 3.236875 -2.55625 2.47375 -1.8125 1.6875 C-1.214375 1.130625 -0.61625 0.57375 0 0 Z M-3.4375 8.9375 C-6.03699457 10.74900939 -7.97619347 11.99206449 -11 13 C-9.45333439 16.46388652 -7.38609908 19.18623827 -5 22.125 C-4.29875 22.99382813 -3.5975 23.86265625 -2.875 24.7578125 C-1.04205566 27.01716533 -1.04205566 27.01716533 1 29 C1.66 21.41 2.32 13.82 3 6 C0.16659487 6 -1.13132869 7.32810295 -3.4375 8.9375 Z M-27.875 17.375 C-32.3703375 19.7125755 -37.02380486 20.2592354 -42 21 C-42.33 21.99 -42.66 22.98 -43 24 C-41.9378125 24.53109375 -40.875625 25.0621875 -39.78125 25.609375 C-36.94791667 27.02604167 -34.11458333 28.44270833 -31.28125 29.859375 C-30.57871094 30.20806641 -29.87617188 30.55675781 -29.15234375 30.91601562 C-27.67778142 31.6586491 -26.21190752 32.41871696 -24.75390625 33.19335938 C-22.86473479 34.18577223 -20.93484596 35.09987601 -19 36 C-18.34 35.67 -17.68 35.34 -17 35 C-19.64 28.73 -22.28 22.46 -25 16 C-26.25312157 15.90143939 -26.25312157 15.90143939 -27.875 17.375 Z " fill="#1F1C1D" transform="translate(195,31)"/>
<path d="M0 0 C0.74894531 0.10699219 1.49789063 0.21398437 2.26953125 0.32421875 C3.37361328 0.47310547 3.37361328 0.47310547 4.5 0.625 C5.35207031 0.75261719 6.20414062 0.88023437 7.08203125 1.01171875 C9.39203125 1.34171875 11.70203125 1.67171875 14.08203125 2.01171875 C14.08203125 13.89171875 14.08203125 25.77171875 14.08203125 38.01171875 C8.14203125 38.01171875 2.20203125 38.01171875 -3.91796875 38.01171875 C-3.96382962 32.9211627 -4.00366933 27.83132055 -4.02783203 22.74072266 C-4.03790251 21.0082761 -4.05155964 19.27584659 -4.06884766 17.54345703 C-4.09305037 15.05627236 -4.10444114 12.569312 -4.11328125 10.08203125 C-4.12360382 9.30489777 -4.13392639 8.52776428 -4.14456177 7.7270813 C-4.14496146 5.82046382 -4.04029015 3.91440839 -3.91796875 2.01171875 C-1.91796875 0.01171875 -1.91796875 0.01171875 0 0 Z " fill="#F5F5F5" transform="translate(274.91796875,279.98828125)"/>
<path d="M0 0 C1 1 1 1 1.11352539 4.51000977 C1.11336626 6.07048422 1.10767142 7.63096393 1.09765625 9.19140625 C1.0962413 10.01124496 1.09482635 10.83108368 1.09336853 11.67576599 C1.08775289 14.30471382 1.07519779 16.93357773 1.0625 19.5625 C1.05748701 21.34049357 1.05292376 23.11848846 1.04882812 24.89648438 C1.03862752 29.26438158 1.01905532 33.6320964 1 38 C-4.61 38 -10.22 38 -16 38 C-16 26.12 -16 14.24 -16 2 C-5.46341463 -0.34146341 -5.46341463 -0.34146341 0 0 Z " fill="#FCFCFC" transform="translate(265,280)"/>
<path d="M0 0 C1 1 1 1 1.11352539 4.51000977 C1.11336626 6.07048422 1.10767142 7.63096393 1.09765625 9.19140625 C1.0962413 10.01124496 1.09482635 10.83108368 1.09336853 11.67576599 C1.08775289 14.30471382 1.07519779 16.93357773 1.0625 19.5625 C1.05748701 21.34049357 1.05292376 23.11848846 1.04882812 24.89648438 C1.03862752 29.26438158 1.01905532 33.6320964 1 38 C-4.61 38 -10.22 38 -16 38 C-16 26.12 -16 14.24 -16 2 C-5.46341463 -0.34146341 -5.46341463 -0.34146341 0 0 Z " fill="#FCFCFC" transform="translate(141,280)"/>
<path d="M0 0 C1 1 1 1 1.11352539 4.41821289 C1.11336628 5.93636988 1.10767226 7.45453229 1.09765625 8.97265625 C1.0962413 9.77029892 1.09482635 10.56794159 1.09336853 11.38975525 C1.08775316 13.94737435 1.07519812 16.50490718 1.0625 19.0625 C1.05748698 20.79231645 1.05292373 22.52213426 1.04882812 24.25195312 C1.03862791 28.50136239 1.01905568 32.75058416 1 37 C-7.415 37.495 -7.415 37.495 -16 38 C-16 26.12 -16 14.24 -16 2 C-5.46341463 -0.34146341 -5.46341463 -0.34146341 0 0 Z " fill="#FDFDFD" transform="translate(141,168)"/>
<path d="M0 0 C1.9404536 0.06458393 3.87869816 0.20196332 5.8125 0.375 C7.39998047 0.51035156 7.39998047 0.51035156 9.01953125 0.6484375 C12 1 12 1 16 2 C16 13.88 16 25.76 16 38 C10.39 37.67 4.78 37.34 -1 37 C-1.02290896 31.89130189 -1.04283601 26.78278074 -1.05493164 21.67407227 C-1.05997204 19.93480832 -1.0668043 18.19554864 -1.07543945 16.45629883 C-1.08751792 13.96174063 -1.09323108 11.46723827 -1.09765625 8.97265625 C-1.10281754 8.19036148 -1.10797882 7.40806671 -1.11329651 6.60206604 C-1.11349226 4.73432886 -1.06199694 2.86670796 -1 1 C-0.67 0.67 -0.34 0.34 0 0 Z " fill="#FDFDFD" transform="translate(272,168)"/>
<path d="M0 0 C1.56614842 0.06488751 3.12951016 0.2026663 4.6875 0.375 C5.53699219 0.46523438 6.38648438 0.55546875 7.26171875 0.6484375 C10.18511916 1.02376708 13.09270665 1.51545111 16 2 C16 13.88 16 25.76 16 38 C10.39 37.67 4.78 37.34 -1 37 C-1.02290896 31.89130189 -1.04283601 26.78278074 -1.05493164 21.67407227 C-1.05997204 19.93480832 -1.0668043 18.19554864 -1.07543945 16.45629883 C-1.08751792 13.96174063 -1.09323108 11.46723827 -1.09765625 8.97265625 C-1.10281754 8.19036148 -1.10797882 7.40806671 -1.11329651 6.60206604 C-1.11349226 4.73432886 -1.06199694 2.86670796 -1 1 C-0.67 0.67 -0.34 0.34 0 0 Z " fill="#FDFDFD" transform="translate(149,280)"/>
<path d="M0 0 C1 1 1 1 1.11352539 4.41821289 C1.11336628 5.93636988 1.10767226 7.45453229 1.09765625 8.97265625 C1.0962413 9.77029892 1.09482635 10.56794159 1.09336853 11.38975525 C1.08775316 13.94737435 1.07519812 16.50490718 1.0625 19.0625 C1.05748698 20.79231645 1.05292373 22.52213426 1.04882812 24.25195312 C1.03862791 28.50136239 1.01905568 32.75058416 1 37 C-7.415 37.495 -7.415 37.495 -16 38 C-16 26.12 -16 14.24 -16 2 C-4.33333333 -0.33333333 -4.33333333 -0.33333333 0 0 Z " fill="#FDFDFD" transform="translate(264,168)"/>
<path d="M0 0 C1.75326456 0.06471782 3.50406454 0.20227376 5.25 0.375 C6.68085938 0.51035156 6.68085938 0.51035156 8.140625 0.6484375 C10.77900479 0.97282846 13.39337431 1.47867486 16 2 C16 13.88 16 25.76 16 38 C10.39 37.67 4.78 37.34 -1 37 C-1.02290896 31.89130189 -1.04283601 26.78278074 -1.05493164 21.67407227 C-1.05997204 19.93480832 -1.0668043 18.19554864 -1.07543945 16.45629883 C-1.08751792 13.96174063 -1.09323108 11.46723827 -1.09765625 8.97265625 C-1.10281754 8.19036148 -1.10797882 7.40806671 -1.11329651 6.60206604 C-1.11349226 4.73432886 -1.06199694 2.86670796 -1 1 C-0.67 0.67 -0.34 0.34 0 0 Z " fill="#FDFDFD" transform="translate(149,168)"/>
<path d="M0 0 C3.30678159 2.61786876 4.71621262 4.11316445 6 8.125 C6 11 6 11 5 12.75 C-1.64107477 16.90067173 -9.2497601 16.58378692 -16.6875 15.375 C-20.46742673 14.4397604 -22.61689278 13.06047406 -24.9375 9.7890625 C-30 1.26470588 -30 1.26470588 -30 -2 C-20.33302607 -5.68265674 -8.81470939 -5.74546876 0 0 Z " fill="#EA1B23" transform="translate(305,112)"/>
<path d="M0 0 C5.06606593 3.67538117 7.65947145 7.62443577 10.1875 13.3125 C10.1875 13.9725 10.1875 14.6325 10.1875 15.3125 C5.41631567 17.7763083 0.92177243 17.61059439 -4.3125 17.5625 C-5.15425781 17.57023437 -5.99601562 17.57796875 -6.86328125 17.5859375 C-15.02648547 17.56022662 -15.02648547 17.56022662 -18.8125 15.3125 C-22.65038139 10.98080542 -25.37473883 5.91976856 -26.8125 0.3125 C-19.58499852 -3.25135674 -7.42656297 -3.47416866 0 0 Z " fill="#EB1B23" transform="translate(159.8125,109.6875)"/>
<path d="M0 0 C0.83337891 -0.02449219 1.66675781 -0.04898438 2.52539062 -0.07421875 C8.90128738 -0.10446016 12.5046212 1.40618563 17.171875 5.9375 C22.5625 12.73116438 22.5625 12.73116438 22.5625 17.375 C17.37443938 19.08177712 12.8834282 19.68676856 7.4375 19.625 C6.74785156 19.63273437 6.05820313 19.64046875 5.34765625 19.6484375 C1.31747219 19.63302571 -1.86233785 19.27531142 -5.4375 17.375 C-9.01290929 13.6251805 -14.4375 7.7863937 -14.4375 2.375 C-9.68952432 -0.05239043 -5.20827923 0.00801891 0 0 Z " fill="#EC1B23" transform="translate(218.4375,108.625)"/>
<path d="M0 0 C4.13126331 3.57200932 6.93604137 7.95476779 9 13 C9 13.99 9 14.98 9 16 C5.93570224 17.53214888 3.3834358 17.22938548 0 17 C-3.90838487 15.06124353 -6.3543982 12.71058726 -9.125 9.375 C-11.96743929 5.85313554 -11.96743929 5.85313554 -16 4 C-16 5.32 -16 6.64 -16 8 C-15.401875 8.226875 -14.80375 8.45375 -14.1875 8.6875 C-11.43648112 10.33811133 -10.47515363 12.1972081 -9 15 C-12 17 -12 17 -14.875 16.9375 C-21.16029992 15.05191002 -23.29567921 10.67712471 -26.3125 5.1875 C-27.21697844 3.4628396 -28.11573224 1.73510958 -29 0 C-19.34857792 -3.44987002 -9.42017882 -5.12515476 0 0 Z " fill="#F8F8F8" transform="translate(197,111)"/>
<path d="M0 0 C3.73414858 3.94160128 7.25 8.82342 7.25 14.375 C3.94504039 16.02747981 0.79325947 16.1444644 -2.75 15.375 C-6.5765226 12.90101381 -9.70497253 9.8883056 -12.29296875 6.140625 C-12.77378906 5.55796875 -13.25460937 4.9753125 -13.75 4.375 C-14.74 4.375 -15.73 4.375 -16.75 4.375 C-16.75 5.035 -16.75 5.695 -16.75 6.375 C-15.945625 7.179375 -15.14125 7.98375 -14.3125 8.8125 C-11.75 11.375 -11.75 11.375 -10.75 14.375 C-13.96868696 15.29462485 -16.50494167 16.0172711 -19.59765625 14.421875 C-24.32234117 10.64212707 -27.35356042 5.89675018 -29.75 0.375 C-29.75 -0.285 -29.75 -0.945 -29.75 -1.625 C-18.77911241 -4.95792788 -10.19333136 -6.02333217 0 0 Z " fill="#F8F8F8" transform="translate(269.75,112.625)"/>
<path d="M0 0 C-3.358194 2.238796 -6.09570807 2.94142552 -10 3.9375 C-11.35558777 4.28599569 -12.71105577 4.63495757 -14.06640625 4.984375 C-14.73430176 5.15517578 -15.40219727 5.32597656 -16.09033203 5.50195312 C-19.5250238 6.39773058 -22.93186301 7.3948024 -26.33984375 8.38671875 C-34.06952814 10.16874584 -41.94773922 10.27942039 -49.84179688 10.51757812 C-54.35609347 10.69897139 -57.84705554 11.06821604 -62 13 C-62.99 13 -63.98 13 -65 13 C-65.33 9.7 -65.66 6.4 -66 3 C-61.84221454 1.02246227 -58.35152252 0.69888716 -53.76953125 0.5859375 C-53.06924805 0.56652603 -52.36896484 0.54711456 -51.64746094 0.52711487 C-49.36926353 0.46687588 -47.09103508 0.4205236 -44.8125 0.375 C-43.24242075 0.33711879 -41.67235234 0.29878537 -40.10229492 0.26000977 C-26.73536457 -0.05284917 -13.37014516 -0.11585914 0 0 Z " fill="#FAFAFA" transform="translate(310,82)"/>
<path d="M0 0 C5.07750167 3.39735513 8.60348498 9.39969534 11.3125 14.75 C10.8175 16.235 10.8175 16.235 10.3125 17.75 C6.11962068 18.36146157 2.70768845 18.64176993 -0.9609375 16.296875 C-3.54284357 14.01251201 -5.90851021 11.59341752 -8.24609375 9.0625 C-10.22592436 7.25972741 -12.08297842 7.10196238 -14.6875 6.75 C-14.6875 7.74 -14.6875 8.73 -14.6875 9.75 C-14.089375 9.8325 -13.49125 9.915 -12.875 10 C-10.03388817 10.97409548 -9.13767921 12.15494247 -7.6875 14.75 C-8.0175 15.74 -8.3475 16.73 -8.6875 17.75 C-12.41959641 18.72745382 -14.28503904 18.90479268 -17.9375 17.5 C-20.6875 15.75 -20.6875 15.75 -22.6875 12.75 C-23.47743519 5.75343119 -23.47743519 5.75343119 -20.375 1.8125 C-14.47515045 -2.71529151 -6.81132835 -2.30892486 0 0 Z " fill="#F8F8F9" transform="translate(124.6875,109.25)"/>
<path d="M0 0 C29.04 0 58.08 0 88 0 C88 26.4 88 52.8 88 80 C85.5279853 81.23600735 83.74295364 81.20583765 80.97729492 81.31420898 C79.92383377 81.35586685 78.87037262 81.39752472 77.7849884 81.44044495 C76.63262192 81.47943405 75.48025543 81.51842316 74.29296875 81.55859375 C73.09310837 81.60084579 71.89324799 81.64309784 70.6570282 81.68663025 C56.54286246 82.13967164 42.43217813 82.10970513 28.3125 82.0625 C25.6412769 82.05687431 22.97005441 82.05290584 20.29882812 82.04882812 C13.86586429 82.03800212 7.43293683 82.02142741 1 82 C1.33 81.01 1.66 80.02 2 79 C30.05 79 58.1 79 87 79 C87 53.26 87 27.52 87 1 C58.29 1 29.58 1 0 1 C0 0.67 0 0.34 0 0 Z " fill="#0F0C0D" transform="translate(101,151)"/>
<path d="M0 0 C12.87404253 -0.11939118 25.74764772 -0.05887922 38.61837769 0.26345825 C39.99239346 0.29602478 41.36653617 0.32363207 42.74075317 0.34616089 C44.68553341 0.37947334 46.62992452 0.43351065 48.57421875 0.48828125 C50.25390747 0.52755737 50.25390747 0.52755737 51.9675293 0.56762695 C55.30467613 1.04344106 57.25937812 2.0826807 60 4 C59.67 6.31 59.34 8.62 59 11 C54.3607047 12.46970042 51.12574799 11.24694249 46.75 9.625 C40.88294972 7.60246529 35.57521367 6.59459284 29.375 6.4375 C22.47189917 6.26227837 16.74419366 5.10946813 10.1484375 2.9375 C6.77411752 1.93273971 3.49100731 1.42208653 0 1 C0 0.67 0 0.34 0 0 Z " fill="#F9F9F9" transform="translate(109,84)"/>
<path d="M0 0 C1.2125219 0.00303635 1.2125219 0.00303635 2.44953918 0.00613403 C3.29663956 0.00438171 4.14373993 0.00262939 5.01651001 0.00082397 C7.83079547 -0.00359553 10.64501865 -0.00065621 13.45930481 0.00271606 C15.40604159 0.00204305 17.35277828 0.00107305 19.29951477 -0.00018311 C23.38517556 -0.00166021 27.47081452 0.00049489 31.55647278 0.00515747 C36.80601996 0.01085476 42.05551603 0.00757583 47.30506134 0.00158501 C51.32663868 -0.00202026 55.3482038 -0.00088218 59.36978149 0.0017128 C61.3059693 0.00238216 63.2421582 0.00155332 65.17834473 -0.00076675 C67.87945005 -0.00329272 70.5804714 0.00054652 73.28157043 0.00613403 C74.08991837 0.0041098 74.8982663 0.00208557 75.73110962 0 C81.25129233 0.02126609 81.25129233 0.02126609 82.36555481 1.13552856 C82.46094671 2.51428882 82.48744103 3.89789773 82.48580933 5.279953 C82.48787132 6.61986549 82.48787132 6.61986549 82.48997498 7.98684692 C82.48458206 9.46822144 82.48458206 9.46822144 82.4790802 10.97952271 C82.47922623 12.01354721 82.47937225 13.04757172 82.47952271 14.1129303 C82.47882308 17.54886942 82.47102839 20.9847551 82.46321106 24.42068481 C82.46134705 26.7958015 82.45992307 29.17091856 82.45892334 31.54603577 C82.45509678 37.81129001 82.44526531 44.07652124 82.43421936 50.34176636 C82.42400821 56.72939747 82.41942636 63.11703228 82.41438293 69.50466919 C82.40364317 82.04829883 82.38675608 94.59191247 82.36555481 107.13552856 C82.03555481 107.13552856 81.70555481 107.13552856 81.36555481 107.13552856 C81.36555481 72.48552856 81.36555481 37.83552856 81.36555481 2.13552856 C52.98555481 2.13552856 24.60555481 2.13552856 -4.63444519 2.13552856 C-4.63444519 7.08552856 -4.63444519 12.03552856 -4.63444519 17.13552856 C-4.96444519 17.13552856 -5.29444519 17.13552856 -5.63444519 17.13552856 C-5.82831011 14.490018 -6.01482786 11.84435073 -6.19694519 9.19802856 C-6.25301941 8.44328247 -6.30909363 7.68853638 -6.36686707 6.91091919 C-6.49620677 4.98806899 -6.56961431 3.06163308 -6.63444519 1.13552856 C-4.83702699 -0.66188964 -2.39306557 0.0092191 0 0 Z " fill="#151113" transform="translate(106.63444519042969,262.8644714355469)"/>
<path d="M0 0 C3.19019938 1.4106416 6.37663215 2.82960609 9.5625 4.25 C10.45775391 4.64574219 11.35300781 5.04148437 12.27539062 5.44921875 C17.36146516 7.72211653 22.21834155 10.14018781 27 13 C26.42647107 16.87132028 24.51295648 19.08172796 22 22 C14.63647177 20.17217384 9.74851909 16.84613528 4 12 C3.01 11.29875 2.02 10.5975 1 9.875 C-1 8 -1 8 -1.9375 5.4375 C-2 3 -2 3 0 0 Z " fill="#F7F7F7" transform="translate(151,59)"/>
<path d="M0 0 C2.625 0.75 2.625 0.75 5 2 C5.33 2.66 5.66 3.32 6 4 C5.32517578 4.45826172 5.32517578 4.45826172 4.63671875 4.92578125 C-0.55149078 8.61679204 -4.94350579 12.79268937 -9.31762695 17.3918457 C-10.51034061 18.6290269 -11.75168994 19.81893896 -13 21 C-13.66 21 -14.32 21 -15 21 C-16.2890625 19.5390625 -16.2890625 19.5390625 -17.625 17.625 C-18.29402344 16.68527344 -18.29402344 16.68527344 -18.9765625 15.7265625 C-20 14 -20 14 -20 12 C-18.48706055 10.88671875 -18.48706055 10.88671875 -16.38671875 9.6875 C-15.63326172 9.25179687 -14.87980469 8.81609375 -14.10351562 8.3671875 C-13.30623047 7.91601562 -12.50894531 7.46484375 -11.6875 7 C-10.12855002 6.10478672 -8.56994285 5.20897616 -7.01171875 4.3125 C-6.31522217 3.91675781 -5.61872559 3.52101562 -4.90112305 3.11328125 C-3.23097021 2.13525416 -1.61038761 1.07359174 0 0 Z " fill="#F6F6F6" transform="translate(254,59)"/>
<path d="M0 0 C6.93 0.33 13.86 0.66 21 1 C21 3.31 21 5.62 21 8 C20.67 8 20.34 8 20 8 C20 6.35 20 4.7 20 3 C19.01 3.495 19.01 3.495 18 4 C18.33 4.66 18.66 5.32 19 6 C19.08667255 8.62627133 19.11560135 11.22562483 19.09765625 13.8515625 C19.0962413 14.62559418 19.09482635 15.39962585 19.09336853 16.19711304 C19.08776403 18.67311442 19.07521083 21.14902588 19.0625 23.625 C19.05748558 25.30208203 19.05292257 26.97916547 19.04882812 28.65625 C19.03779315 32.77086806 19.02052554 36.88541878 19 41 C18.34 41 17.68 41 17 41 C17 29.45 17 17.9 17 6 C11.72 5.67 6.44 5.34 1 5 C-1.00503509 7.00503509 -0.25588663 11.00025444 -0.31640625 13.75390625 C-0.33718735 14.52935287 -0.35796844 15.3047995 -0.37937927 16.10374451 C-0.44495802 18.58990308 -0.50379799 21.07617045 -0.5625 23.5625 C-0.60567733 25.24415204 -0.64929136 26.92579294 -0.69335938 28.60742188 C-0.80064779 32.73816871 -0.90189132 36.86902536 -1 41 C-1.33 41 -1.66 41 -2 41 C-2.04954963 35.9646141 -2.08579037 30.9293711 -2.10986328 25.89379883 C-2.11990208 24.18185961 -2.13353595 22.46993745 -2.15087891 20.75805664 C-2.17522073 18.29308858 -2.18650438 15.82834785 -2.1953125 13.36328125 C-2.20563507 12.60163162 -2.21595764 11.83998199 -2.22659302 11.05525208 C-2.2275222 6.62425417 -1.70231987 4.25579966 0 0 Z " fill="#151112" transform="translate(148,276)"/>
<path d="M0 0 C1.65 0.99 3.3 1.98 5 3 C4.033761 6.34414631 3.02833178 9.67443162 2 13 C1.64035156 14.19302734 1.64035156 14.19302734 1.2734375 15.41015625 C0.5625 17.5625 0.5625 17.5625 -1 21 C-2.89453125 21.8046875 -2.89453125 21.8046875 -5 22 C-8.25 20.5625 -8.25 20.5625 -11 19 C-10.49895538 14.36195179 -9.3804184 11.56196175 -6.625 7.8125 C-6.01914063 6.97332031 -5.41328125 6.13414063 -4.7890625 5.26953125 C-3.28471876 3.36118253 -1.76581464 1.66289906 0 0 Z " fill="#F9F9F9" transform="translate(230,45)"/>
<path d="M0 0 C2.375 0.1875 2.375 0.1875 5 1 C8.65241341 7.20910281 8.10726336 15.02788182 8 22 C4.7 22 1.4 22 -2 22 C-2.19355213 14.34393782 -2.3479743 7.33741969 0 0 Z " fill="#F0F0F0" transform="translate(203,40)"/>
<path d="M0 0 C2.140625 -0.41796875 2.140625 -0.41796875 5 0 C7.26813335 1.95707949 8.97161902 4.28836339 10.75 6.6875 C11.49056641 7.62625977 11.49056641 7.62625977 12.24609375 8.58398438 C14.84047298 11.97800104 16.63100808 14.61402785 17 19 C14.1875 20.5625 14.1875 20.5625 11 22 C8 21 8 21 6.92504883 19.17407227 C6.60560303 18.39604248 6.28615723 17.6180127 5.95703125 16.81640625 C5.60576172 15.97142578 5.25449219 15.12644531 4.89257812 14.25585938 C4.53615234 13.36705078 4.17972656 12.47824219 3.8125 11.5625 C3.44447266 10.67755859 3.07644531 9.79261719 2.69726562 8.88085938 C0 2.31034033 0 2.31034033 0 0 Z " fill="#F7F7F7" transform="translate(175,46)"/>
<path d="M0 0 C3.63 0 7.26 0 11 0 C11.33 0.66 11.66 1.32 12 2 C5.375 3.125 5.375 3.125 2 2 C2 2.99 2 3.98 2 5 C2.66 5 3.32 5 4 5 C4 16.22 4 27.44 4 39 C3.34 39 2.68 39 2 39 C1.67 29.1 1.34 19.2 1 9 C-0.65 9 -2.3 9 -4 9 C-4 22.2 -4 35.4 -4 49 C-4.33 49 -4.66 49 -5 49 C-5 35.14 -5 21.28 -5 7 C-3.35 7 -1.7 7 0 7 C0 4.69 0 2.38 0 0 Z " fill="#171415" transform="translate(244,165)"/>
<path d="M0 0 C3.20087088 2.34210064 6.2284128 4.63321222 8.5625 7.875 C8.9375 10.75 8.9375 10.75 8.5625 12.875 C5.75700778 11.73202169 4.27743626 10.58262693 2.125 8.375 C-1.66673016 4.67575106 -4.68448171 3.7695244 -9.875 3.5 C-14.401465 3.567784 -16.79939298 5.18973053 -20.4375 7.875 C-21.4275 7.545 -22.4175 7.215 -23.4375 6.875 C-23.21935746 3.8210044 -22.37874627 2.81624627 -20.1875 0.625 C-14.40469822 -2.92608944 -6.17219434 -2.01999088 0 0 Z " fill="#242022" transform="translate(231.4375,11.125)"/>
<path d="M0 0 C1.65 0 3.3 0 5 0 C4.01 0.33 3.02 0.66 2 1 C2 13.54 2 26.08 2 39 C9.26 39 16.52 39 24 39 C24 39.66 24 40.32 24 41 C16.08 41 8.16 41 0 41 C0 27.47 0 13.94 0 0 Z " fill="#1A1617" transform="translate(115,173)"/>
<path d="M0 0 C2.97973615 -0.08184423 5.95716832 -0.14089764 8.9375 -0.1875 C9.76830078 -0.21263672 10.59910156 -0.23777344 11.45507812 -0.26367188 C16.82405456 -0.32634475 21.08402813 0.40283158 26.0859375 2.38085938 C28.63806031 3.20639298 30.49903835 2.887438 33 2 C32.505 2.37125 32.01 2.7425 31.5 3.125 C29.40244486 5.74694393 29.78256165 7.73842472 30 11 C27 11 27 11 24.25 8.625 C17.77740077 3.05224993 10.09071444 3.76086558 2 4 C1.34 2.68 0.68 1.36 0 0 Z " fill="#1B1718" transform="translate(174,105)"/>
<path d="M0 0 C2.3345253 1.1240307 3.97562744 2.33897636 6 4 C5.67 5.32 5.34 6.64 5 8 C4.360625 7.67 3.72125 7.34 3.0625 7 C-1.04336463 5.65930951 -4.72035461 5.36820701 -9 6 C-13.27403857 8.22438719 -13.27403857 8.22438719 -16 12 C-16.99 11.67 -17.98 11.34 -19 11 C-18.67184163 7.99017248 -18.39170784 6.40307436 -16.25 4.19921875 C-10.88031387 0.59146088 -6.51217821 -1.48780102 0 0 Z " fill="#1F1C1D" transform="translate(197,8)"/>
<path d="M0 0 C0 1.65 0 3.3 0 5 C-0.61875 5.103125 -1.2375 5.20625 -1.875 5.3125 C-4.36526484 5.87525373 -4.36526484 5.87525373 -6 9 C-8.5 9.3125 -8.5 9.3125 -11 9 C-11.66 8.34 -12.32 7.68 -13 7 C-13 6.01 -13 5.02 -13 4 C-14.98 4.33 -16.96 4.66 -19 5 C-18 2 -18 2 -16 0.3125 C-10.78547908 -1.9688529 -5.41382241 -1.52225392 0 0 Z " fill="#252223" transform="translate(203,84)"/>
<path d="M0 0 C2.06132142 -0.10864945 4.12431321 -0.18588321 6.1875 -0.25 C7.33605469 -0.29640625 8.48460937 -0.3428125 9.66796875 -0.390625 C13.60353399 0.07075428 15.17745787 1.29971488 18 4 C17.67 4.66 17.34 5.32 17 6 C15.35 5.34 13.7 4.68 12 4 C11.67 5.32 11.34 6.64 11 8 C9.35 8.33 7.7 8.66 6 9 C5.34 7.68 4.68 6.36 4 5 C2.35 5 0.7 5 -1 5 C-0.67 3.35 -0.34 1.7 0 0 Z " fill="#1B1719" transform="translate(211,84)"/>
<path d="M0 0 C3.69276076 2.07717793 4.72572759 3.32084927 6.3125 7.25 C6.539375 8.1575 6.76625 9.065 7 10 C5.68 10 4.36 10 3 10 C2.34 9.175 1.68 8.35 1 7.5 C-3.58953233 3.67538972 -8.25059302 4.58736314 -14 5 C-14 3.68 -14 2.36 -14 1 C-9.33008346 -1.78253688 -5.15992691 -1.14572121 0 0 Z " fill="#353233" transform="translate(285,35)"/>
<path d="M0 0 C0.66 0.66 1.32 1.32 2 2 C1.28972656 2.04898438 0.57945312 2.09796875 -0.15234375 2.1484375 C-1.53099609 2.26058594 -1.53099609 2.26058594 -2.9375 2.375 C-3.85402344 2.44460937 -4.77054688 2.51421875 -5.71484375 2.5859375 C-6.46894531 2.72257813 -7.22304687 2.85921875 -8 3 C-8.33 3.66 -8.66 4.32 -9 5 C-8.34 5.33 -7.68 5.66 -7 6 C-12.445 6.495 -12.445 6.495 -18 7 C-18 7.99 -18 8.98 -18 10 C-20.64 10 -23.28 10 -26 10 C-26 9.67 -26 9.34 -26 9 C-24.35 9 -22.7 9 -21 9 C-21 6.69 -21 4.38 -21 2 C-18.81347261 1.66034526 -16.62571975 1.32857523 -14.4375 1 C-13.21933594 0.814375 -12.00117188 0.62875 -10.74609375 0.4375 C-7.09748376 0.01138496 -3.66769792 -0.21761372 0 0 Z " fill="#262223" transform="translate(141,163)"/>
<path d="M0 0 C0.98484375 0.01804687 1.9696875 0.03609375 2.984375 0.0546875 C4.10585937 0.08949219 4.10585937 0.08949219 5.25 0.125 C5.58 1.445 5.91 2.765 6.25 4.125 C5.59773438 4.06699219 4.94546875 4.00898438 4.2734375 3.94921875 C-1.90644524 3.5858248 -1.90644524 3.5858248 -7.25 6.3125 C-9.5811116 8.93500055 -10.79489499 10.78213246 -11.75 14.125 C-12.74 14.125 -13.73 14.125 -14.75 14.125 C-14.33675744 8.8561573 -13.52055562 5.89555562 -9.75 2.125 C-6.45065682 0.02937323 -3.86692354 -0.09206961 0 0 Z " fill="#171415" transform="translate(159.75,20.875)"/>
<path d="M0 0 C3.3125 -0.3125 3.3125 -0.3125 7 0 C8.9375 2.5 8.9375 2.5 10 5 C8.35 5 6.7 5 5 5 C5 16.88 5 28.76 5 41 C4.67 41 4.34 41 4 41 C3.67 29.78 3.34 18.56 3 7 C2.01 7.66 1.02 8.32 0 9 C0 6.03 0 3.06 0 0 Z " fill="#444142" transform="translate(244,277)"/>
<path d="M0 0 C0.33 1.32 0.66 2.64 1 4 C0.39671875 4.07476562 -0.2065625 4.14953125 -0.828125 4.2265625 C-5.5883991 4.9055851 -5.5883991 4.9055851 -9.48828125 7.46875 C-10.70687494 9.28018236 -10.70687494 9.28018236 -12 12 C-12.99 11.67 -13.98 11.34 -15 11 C-14.875 8.25 -14.875 8.25 -14 5 C-9.41192415 1.30959116 -5.83930503 -0.15781905 0 0 Z " fill="#221F20" transform="translate(124,49)"/>
<path d="M0 0 C10.06309148 -0.62460568 10.06309148 -0.62460568 13.625 1.75 C14.935181 3.89393254 15.64607333 5.52251333 16 8 C14.68 8 13.36 8 12 8 C11.1646875 7.01 11.1646875 7.01 10.3125 6 C7.15169297 3.26632906 4.87206555 3.67674543 0.828125 3.859375 C-0.07679688 3.92898437 -0.07679688 3.92898437 -1 4 C-0.67 2.68 -0.34 1.36 0 0 Z " fill="#262325" transform="translate(249,24)"/>
<path d="M0 0 C1 1 1 1 1.11352539 4.51000977 C1.11336626 6.07048422 1.10767142 7.63096393 1.09765625 9.19140625 C1.0962413 10.01124496 1.09482635 10.83108368 1.09336853 11.67576599 C1.08775289 14.30471382 1.07519779 16.93357773 1.0625 19.5625 C1.05748701 21.34049357 1.05292376 23.11848846 1.04882812 24.89648438 C1.03777839 29.26435545 1.02050331 33.63216348 1 38 C0.67 38 0.34 38 0 38 C0 26.45 0 14.9 0 3 C-3.3 2.67 -6.6 2.34 -10 2 C-6.67296972 -1.32703028 -4.32192239 -1.137348 0 0 Z " fill="#262425" transform="translate(288,167)"/>
<path d="M0 0 C0 2.64 0 5.28 0 8 C-0.33 8 -0.66 8 -1 8 C-1 6.02 -1 4.04 -1 2 C-8.52719602 1.74484081 -15.58851545 2.71702277 -23 4 C-22.67 2.68 -22.34 1.36 -22 0 C-14.50824535 -1.0773541 -7.51094816 -0.8388516 0 0 Z " fill="#181415" transform="translate(293,165)"/>
<path d="M0 0 C-3.75 2 -3.75 2 -6 2 C-5.34 3.32 -4.68 4.64 -4 6 C-4.99 7.485 -4.99 7.485 -6 9 C-9.26460973 7.19587357 -10.88929795 6.16605307 -13 3 C-12.34 3 -11.68 3 -11 3 C-10.896875 2.360625 -10.79375 1.72125 -10.6875 1.0625 C-10.460625 0.381875 -10.23375 -0.29875 -10 -1 C-6.06329512 -2.31223496 -3.87511856 -1.24296256 0 0 Z " fill="#272223" transform="translate(246,109)"/>
<path d="M0 0 C3.69212837 -0.3434538 5.60790131 -0.221621 8.875 1.625 C11 4 11 4 11.3125 7.25 C11.1578125 8.61125 11.1578125 8.61125 11 10 C9.68 10.33 8.36 10.66 7 11 C6.67 9.02 6.34 7.04 6 5 C3.03 4.505 3.03 4.505 0 4 C0 2.68 0 1.36 0 0 Z " fill="#232021" transform="translate(295,47)"/>
<path d="M0 0 C-0.0625 1.8125 -0.0625 1.8125 -1 4 C-3.31808364 5.03485877 -5.65175298 6.0355414 -8 7 C-8.33 7.99 -8.66 8.98 -9 10 C-10.32 9.67 -11.64 9.34 -13 9 C-10.91376881 2.17233428 -7.1449644 -0.66464785 0 0 Z " fill="#1B1819" transform="translate(141,37)"/>
<path d="M0 0 C5.61 0 11.22 0 17 0 C17 1.32 17 2.64 17 4 C12.05 4 7.1 4 2 4 C1.34 2.68 0.68 1.36 0 0 Z " fill="#171314" transform="translate(174,105)"/>
<path d="M0 0 C10.55808656 -0.18451025 10.55808656 -0.18451025 15 1 C14.67 1.99 14.34 2.98 14 4 C9.08471601 5.19884975 5.71817304 4.85026394 1 3 C0.67 2.01 0.34 1.02 0 0 Z " fill="#171314" transform="translate(271,276)"/>
<path d="M0 0 C0.928125 0.20625 1.85625 0.4125 2.8125 0.625 C2.1525 1.285 1.4925 1.945 0.8125 2.625 C-0.5075 2.625 -1.8275 2.625 -3.1875 2.625 C-3.1875 3.285 -3.1875 3.945 -3.1875 4.625 C-4.8375 4.955 -6.4875 5.285 -8.1875 5.625 C-7.6925 6.40875 -7.1975 7.1925 -6.6875 8 C-5.1875 10.625 -5.1875 10.625 -5.1875 12.625 C-6.1775 12.625 -7.1675 12.625 -8.1875 12.625 C-8.5175 13.285 -8.8475 13.945 -9.1875 14.625 C-10.1875 11.625 -10.1875 11.625 -9.1875 8.625 C-9.043125 7.779375 -8.89875 6.93375 -8.75 6.0625 C-7.70779986 1.5462994 -4.54140629 -0.53428309 0 0 Z " fill="#212020" transform="translate(212.1875,105.375)"/>
<path d="M0 0 C3.41223902 0.76775378 4.73195694 1.65154402 6.875 4.4375 C8 7 8 7 7 10 C3.28133515 8.76044505 1.67716114 6.81445146 -1 4 C-1.66 3.34 -2.32 2.68 -3 2 C-2.01 1.34 -1.02 0.68 0 0 Z " fill="#181516" transform="translate(284,36)"/>
<path d="M0 0 C0.33 0 0.66 0 1 0 C1.042721 1.66611905 1.04063832 3.33382885 1 5 C0 6 0 6 -1.84765625 6.09765625 C-3.8984375 6.06510417 -5.94921875 6.03255208 -8 6 C-8.66 4.35 -9.32 2.7 -10 1 C-9.36191406 1.01160156 -8.72382813 1.02320312 -8.06640625 1.03515625 C-7.24011719 1.04417969 -6.41382813 1.05320312 -5.5625 1.0625 C-4.32693359 1.07990234 -4.32693359 1.07990234 -3.06640625 1.09765625 C-1.00836062 1.23267348 -1.00836062 1.23267348 0 0 Z " fill="#161314" transform="translate(210,97)"/>
<path d="M0 0 C0 0.66 0 1.32 0 2 C2.64 2 5.28 2 8 2 C8 2.33 8 2.66 8 3 C2.06 3.495 2.06 3.495 -4 4 C-4 3.34 -4 2.68 -4 2 C-6.31 2 -8.62 2 -11 2 C-11 3.65 -11 5.3 -11 7 C-11.33 7 -11.66 7 -12 7 C-12 5.02 -12 3.04 -12 1 C-7.93631321 0.22596442 -4.13574827 -0.0984702 0 0 Z " fill="#0F0B0C" transform="translate(133,277)"/>
<path d="M0 0 C0 1.32 0 2.64 0 4 C-4.29 3.34 -8.58 2.68 -13 2 C-8.93497316 -2.06502684 -5.21168103 -0.76893655 0 0 Z " fill="#252223" transform="translate(168,167)"/>
<path d="M0 0 C0.66 0.66 1.32 1.32 2 2 C4.20250992 2.46006346 4.20250992 2.46006346 6.625 2.625 C7.44226563 2.69976562 8.25953125 2.77453125 9.1015625 2.8515625 C9.72804687 2.90054688 10.35453125 2.94953125 11 3 C9 5 9 5 5.875 5.125 C4.92625 5.08375 3.9775 5.0425 3 5 C3 5.99 3 6.98 3 8 C0.36 8 -2.28 8 -5 8 C-5 7.67 -5 7.34 -5 7 C-3.35 7 -1.7 7 0 7 C0 4.69 0 2.38 0 0 Z " fill="#3C3A3B" transform="translate(120,165)"/>
<path d="M0 0 C0 0.66 0 1.32 0 2 C2.64 2 5.28 2 8 2 C8 2.33 8 2.66 8 3 C6.02145742 3.19397476 4.0421352 3.38001321 2.0625 3.5625 C0.40927734 3.71912109 0.40927734 3.71912109 -1.27734375 3.87890625 C-2.17582031 3.91886719 -3.07429687 3.95882813 -4 4 C-4.33 3.67 -4.66 3.34 -5 3 C-7.32817964 2.63239269 -9.6618385 2.29758419 -12 2 C-12 1.67 -12 1.34 -12 1 C-7.93631321 0.22596442 -4.13574827 -0.0984702 0 0 Z " fill="#110D0E" transform="translate(257,277)"/>
<path d="M0 0 C0.33 0.66 0.66 1.32 1 2 C0.67 2.99 0.34 3.98 0 5 C-3.63 4.67 -7.26 4.34 -11 4 C-10.67 3.01 -10.34 2.02 -10 1 C-6.7 0.67 -3.4 0.34 0 0 Z " fill="#1A1718" transform="translate(143,164)"/>
<path d="M0 0 C2.97 0 5.94 0 9 0 C9 1.32 9 2.64 9 4 C10.65 4 12.3 4 14 4 C14 4.33 14 4.66 14 5 C11.69 5 9.38 5 7 5 C7 4.34 7 3.68 7 3 C4.69 3 2.38 3 0 3 C0 2.01 0 1.02 0 0 Z " fill="#161314" transform="translate(148,276)"/>
<path d="M0 0 C4.29 0 8.58 0 13 0 C9.41087588 3.58912412 8.22706417 3.44420474 3.3125 3.6875 C2.13300781 3.75324219 0.95351562 3.81898437 -0.26171875 3.88671875 C-1.61716797 3.94279297 -1.61716797 3.94279297 -3 4 C-1.68 3.34 -0.36 2.68 1 2 C0.67 1.34 0.34 0.68 0 0 Z " fill="#101314" transform="translate(212,105)"/>
<path d="M0 0 C3.3 0 6.6 0 10 0 C9.67 0.99 9.34 1.98 9 3 C5.7 3.33 2.4 3.66 -1 4 C-0.67 2.68 -0.34 1.36 0 0 Z " fill="#1D1B1C" transform="translate(249,24)"/>
<path d="M0 0 C2.86095641 1.2824977 5.11365918 2.45343989 7 5 C7.1875 7.6875 7.1875 7.6875 7 10 C3.17398693 8.54875366 1.77670876 6.64225296 0 3 C0 2.01 0 1.02 0 0 Z " fill="#171315" transform="translate(233,14)"/>
<path d="M0 0 C2.875 0.1875 2.875 0.1875 6 1 C7.25 3.4375 7.25 3.4375 8 6 C8.66 6.66 9.32 7.32 10 8 C5.75354935 8 3.61475228 6.18249194 0 4 C0 2.68 0 1.36 0 0 Z " fill="#221E1F" transform="translate(191,105)"/>
<path d="M0 0 C2.64 0 5.28 0 8 0 C8.33 0.99 8.66 1.98 9 3 C5.78548731 4.60725635 2.56387464 4.05748185 -1 4 C-0.34 3.67 0.32 3.34 1 3 C0.67 2.01 0.34 1.02 0 0 Z " fill="#171415" transform="translate(218,10)"/>
<path d="M0 0 C3.63 0 7.26 0 11 0 C9.68 0.99 8.36 1.98 7 3 C6.67 3.66 6.34 4.32 6 5 C3.83125748 4.49396008 2.00032373 4.00016187 0 3 C0 2.01 0 1.02 0 0 Z " fill="#2E2B2C" transform="translate(157,277)"/>
<path d="M0 0 C4.75 0.75 4.75 0.75 7 3 C6.625 5.125 6.625 5.125 6 7 C3.69 6.01 1.38 5.02 -1 4 C-0.01 3.34 0.98 2.68 2 2 C1.34 1.34 0.68 0.68 0 0 Z " fill="#191617" transform="translate(196,9)"/>
<path d="M0 0 C0.99 0.33 1.98 0.66 3 1 C2.34 1 1.68 1 1 1 C1.99 2.65 2.98 4.3 4 6 C3.01 6.99 2.02 7.98 1 9 C0.01 8.01 -0.98 7.02 -2 6 C-1.34 4.02 -0.68 2.04 0 0 Z " fill="#292627" transform="translate(233,70)"/>
<path d="M0 0 C2.475 0.99 2.475 0.99 5 2 C3.68 3.65 2.36 5.3 1 7 C0.01 6.67 -0.98 6.34 -2 6 C-1.125 1.125 -1.125 1.125 0 0 Z " fill="#292627" transform="translate(180,13)"/>
<path d="M0 0 C3 0 3 0 5 1 C5 3.97 5 6.94 5 10 C4.01 10 3.02 10 2 10 C2 8.68 2 7.36 2 6 C1.38001259 3.98504093 0.72045764 1.9812585 0 0 Z " fill="#161416" transform="translate(132,117)"/>
<path d="M0 0 C-2.96687001 1.64826111 -5.65626525 2.44271087 -9 3 C-9 1.68 -9 0.36 -9 -1 C-5.79937313 -2.60031344 -3.27728194 -1.03173691 0 0 Z " fill="#1C191A" transform="translate(280,37)"/>
<path d="M0 0 C0.99 0.33 1.98 0.66 3 1 C2.34 3.31 1.68 5.62 1 8 C0.01 8 -0.98 8 -2 8 C-1.125 1.125 -1.125 1.125 0 0 Z " fill="#120F10" transform="translate(147,27)"/>
<path d="M0 0 C1.98 0 3.96 0 6 0 C4.02 0.99 4.02 0.99 2 2 C2 2.99 2 3.98 2 5 C-0.875 5.125 -0.875 5.125 -4 5 C-4.66 4.34 -5.32 3.68 -6 3 C-5.195625 2.87625 -4.39125 2.7525 -3.5625 2.625 C-2.716875 2.41875 -1.87125 2.2125 -1 2 C-0.67 1.34 -0.34 0.68 0 0 Z " fill="#343233" transform="translate(286,277)"/>
<path d="M0 0 C0.99 0 1.98 0 3 0 C3.66 2.31 4.32 4.62 5 7 C4.34 7.66 3.68 8.32 3 9 C0.70620251 5.55930376 0 4.27709699 0 0 Z " fill="#1A1819" transform="translate(204,118)"/>
<path d="M0 0 C1.62463842 -0.05395478 3.24978541 -0.09277195 4.875 -0.125 C5.77992188 -0.14820313 6.68484375 -0.17140625 7.6171875 -0.1953125 C10 0 10 0 12 2 C6.06 2.495 6.06 2.495 0 3 C0 2.01 0 1.02 0 0 Z " fill="#2C292A" transform="translate(246,167)"/>
<path d="M0 0 C1.32 0.99 2.64 1.98 4 3 C3.67 3.66 3.34 4.32 3 5 C0.525 4.01 0.525 4.01 -2 3 C-2.33 4.32 -2.66 5.64 -3 7 C-4.32 7.33 -5.64 7.66 -7 8 C-6.525625 7.566875 -6.05125 7.13375 -5.5625 6.6875 C-3.76313043 4.97690387 -3.76313043 4.97690387 -3 2 C-2.01 2 -1.02 2 0 2 C0 1.34 0 0.68 0 0 Z " fill="#100E0F" transform="translate(225,85)"/>
<path d="M0 0 C1.485 0.99 1.485 0.99 3 2 C3 2.66 3 3.32 3 4 C4.32 3.67 5.64 3.34 7 3 C6.67 3.66 6.34 4.32 6 5 C4.68 5 3.36 5 2 5 C1.67 5.66 1.34 6.32 1 7 C-0.0625 4.625 -0.0625 4.625 -1 2 C-0.67 1.34 -0.34 0.68 0 0 Z " fill="#161213" transform="translate(236,76)"/>
<path d="M0 0 C0.99 0.33 1.98 0.66 3 1 C2.67 1.99 2.34 2.98 2 4 C-1.0625 5.1875 -1.0625 5.1875 -4 6 C-2.25 1.125 -2.25 1.125 0 0 Z " fill="#130F11" transform="translate(190,65)"/>
<path d="M0 0 C0.33 1.32 0.66 2.64 1 4 C-0.98 4.99 -0.98 4.99 -3 6 C-3.66 5.01 -4.32 4.02 -5 3 C-2.25 0 -2.25 0 0 0 Z " fill="#262324" transform="translate(152,23)"/>
<path d="M0 0 C2.31 0 4.62 0 7 0 C7 0.66 7 1.32 7 2 C7.66 2.33 8.32 2.66 9 3 C6.03 2.67 3.06 2.34 0 2 C0 1.34 0 0.68 0 0 Z " fill="#292526" transform="translate(122,279)"/>
<path d="M0 0 C0.598125 0.20625 1.19625 0.4125 1.8125 0.625 C1.1525 0.625 0.4925 0.625 -0.1875 0.625 C-0.1875 1.615 -0.1875 2.605 -0.1875 3.625 C-2.1675 3.955 -4.1475 4.285 -6.1875 4.625 C-5.03076352 1.15479057 -3.91311293 -0.67081936 0 0 Z " fill="#1F1C1D" transform="translate(190.1875,84.375)"/>
<path d="M0 0 C1.98 0 3.96 0 6 0 C5.67 1.32 5.34 2.64 5 4 C3.35 3.67 1.7 3.34 0 3 C0 2.01 0 1.02 0 0 Z " fill="#302E2F" transform="translate(135,37)"/>
<path d="M0 0 C0.99 0.33 1.98 0.66 3 1 C-0.465 3.97 -0.465 3.97 -4 7 C-4 4 -4 4 -2 1.8125 C-1.34 1.214375 -0.68 0.61625 0 0 Z " fill="#181416" transform="translate(253,67)"/>
<path d="M0 0 C0.66 0.33 1.32 0.66 2 1 C1 2.5 1 2.5 -1 4 C-3.71846235 4.27345479 -6.25677199 4.13491285 -9 4 C-9 3.67 -9 3.34 -9 3 C-7.88625 2.814375 -7.88625 2.814375 -6.75 2.625 C-4.01820689 2.12410486 -4.01820689 2.12410486 -1.8125 0.875 C-1.214375 0.58625 -0.61625 0.2975 0 0 Z " fill="#472928" transform="translate(225,105)"/>
<path d="M0 0 C-2 2 -2 2 -5.125 2.125 C-6.548125 2.063125 -6.548125 2.063125 -8 2 C-8.33 1.34 -8.66 0.68 -9 0 C-5.52176885 -1.15941038 -3.54104422 -0.70820884 0 0 Z " fill="#2C292A" transform="translate(215,106)"/>
<path d="M0 0 C2.475 0.495 2.475 0.495 5 1 C5.33 1.99 5.66 2.98 6 4 C5.01 4.33 4.02 4.66 3 5 C1.5 3.625 1.5 3.625 0 2 C0 1.34 0 0.68 0 0 Z " fill="#1A1718" transform="translate(220,65)"/>
<path d="M0 0 C0.99 0 1.98 0 3 0 C3 1.32 3 2.64 3 4 C0.36 3.67 -2.28 3.34 -5 3 C-5 2.67 -5 2.34 -5 2 C-3.35 2 -1.7 2 0 2 C0 1.34 0 0.68 0 0 Z " fill="#343032" transform="translate(165,167)"/>
<path d="M0 0 C0.99 1.32 1.98 2.64 3 4 C3.66 3.67 4.32 3.34 5 3 C4.67 4.65 4.34 6.3 4 8 C3.34 8 2.68 8 2 8 C0.74335022 5.09399739 0 3.20395416 0 0 Z " fill="#141012" transform="translate(239,84)"/>
</svg>
