<?xml version="1.0" encoding="UTF-8"?>
<svg version="1.1" xmlns="http://www.w3.org/2000/svg" width="1096" height="1084">
<path d="M0 0 C1.31880164 -0.00205263 2.63760329 -0.00410527 3.99636862 -0.0062201 C7.64858713 -0.01175723 11.30078207 -0.01111979 14.95300343 -0.00944251 C18.92976046 -0.00870884 22.90651098 -0.01374038 26.8832652 -0.01801753 C34.76700079 -0.02558389 42.65072961 -0.0277899 50.53446846 -0.02834659 C59.97942372 -0.02926158 69.42437275 -0.03593316 78.86932531 -0.04269341 C101.6962213 -0.0587421 124.52311661 -0.06465547 147.35001722 -0.06944216 C158.15235031 -0.0717793 168.95468287 -0.07538209 179.75701555 -0.07913754 C216.74698852 -0.09197223 253.73696119 -0.10269133 290.72693634 -0.10614014 C293.04831769 -0.10636177 295.36969905 -0.10658355 297.6910804 -0.10680549 C300.01801362 -0.10702613 302.34494685 -0.10724661 304.67188007 -0.10746694 C309.3399727 -0.10790948 314.00806532 -0.1083566 318.67615795 -0.10880661 C319.83357076 -0.108916 320.99098358 -0.10902539 322.1834695 -0.1091381 C359.70427029 -0.11276793 397.22505174 -0.12868562 434.74584513 -0.15199697 C474.43092207 -0.17660782 514.11598798 -0.19031356 553.80107278 -0.19150805 C558.15979143 -0.1916795 562.51851008 -0.19189493 566.87722874 -0.19214249 C567.95043892 -0.19219826 569.02364911 -0.19225402 570.12938082 -0.19231148 C587.38053596 -0.19346085 604.63167123 -0.20447315 621.88281967 -0.21902954 C639.23174266 -0.23341499 656.58064024 -0.23661997 673.92956755 -0.22858956 C684.227651 -0.22414293 694.52565226 -0.22795514 704.82372486 -0.24382807 C711.71458606 -0.25361441 718.60539 -0.25236512 725.49625073 -0.24239184 C729.41464205 -0.23702604 733.33287615 -0.236204 737.25125412 -0.24890056 C785.83617282 -0.39624519 825.53934188 10.49755296 861.67786694 44.13142776 C862.35591381 44.75533401 863.03396069 45.37924026 863.73255444 46.02205276 C873.43960442 55.30027725 881.08652425 66.49338028 887.67786694 78.13142776 C888.01028393 78.71698441 888.34270092 79.30254105 888.68519115 79.90584183 C901.65497519 103.13845641 906.8477255 129.04891202 906.8092947 155.45076752 C906.81237365 157.42852059 906.81237365 157.42852059 906.8155148 159.44622827 C906.82105192 163.09761339 906.82041449 166.74897493 906.81873721 170.4003629 C906.81800354 174.37623131 906.82303509 178.35209322 906.82731223 182.32795882 C906.8348786 190.20996445 906.8370846 198.0919633 906.83764129 205.97397218 C906.83855628 215.41690495 906.84522789 224.85983149 906.85198811 234.30276157 C906.86803702 257.12519727 906.87395026 279.94763229 906.87873686 302.77007262 C906.88107405 313.57074266 906.88467685 324.37141217 906.88843224 335.17208179 C906.90126714 372.15761557 906.91198608 409.14314905 906.91543484 446.128685 C906.91565647 448.44981225 906.91587825 450.7709395 906.91610019 453.09206675 C906.91632083 455.41874193 906.91654131 457.74541711 906.91676164 460.07209229 C906.91720418 464.73965724 906.9176513 469.40722219 906.91810131 474.07478714 C906.9182107 475.23206919 906.91832009 476.38935125 906.9184328 477.58170245 C906.92206237 515.09551346 906.93797895 552.60930513 906.96129167 590.12310873 C906.98590486 629.80225526 906.99960838 669.48139073 907.00080276 709.16054511 C907.0009742 713.51900085 907.00118963 717.87745659 907.00143719 722.23591232 C907.00149296 723.30905509 907.00154872 724.38219785 907.00160618 725.48786009 C907.00275537 742.73509842 907.01376614 759.98231685 907.02832424 777.22954847 C907.04271274 794.57624834 907.04591296 811.9229228 907.03788427 829.269627 C907.03343901 839.56527841 907.03724427 849.8608476 907.05312277 860.15648814 C907.06291397 867.04700458 907.06165524 873.93746377 907.05168654 880.82797975 C907.04632419 884.74535395 907.04548729 888.66257095 907.05819526 892.57993177 C907.20626459 941.35030469 896.4496159 980.84476132 862.67786694 1017.13142776 C862.05396069 1017.80947464 861.43005444 1018.48752151 860.78724194 1019.18611526 C835.74242936 1045.38846119 797.71808058 1061.11542274 761.67378828 1062.22380486 C758.23499814 1062.26169681 754.79752434 1062.26786137 751.35852718 1062.26285553 C750.04002514 1062.26490816 748.72152309 1062.2669608 747.36306643 1062.26907563 C743.71168131 1062.27461275 740.06031977 1062.27397532 736.4089318 1062.27229804 C732.43306339 1062.27156437 728.45720148 1062.27659592 724.48133588 1062.28087306 C716.59933025 1062.28843943 708.7173314 1062.29064543 700.83532252 1062.29120212 C691.39238975 1062.29211711 681.94946321 1062.29878872 672.50653313 1062.30554894 C649.68409743 1062.32159785 626.86166241 1062.32751109 604.03922208 1062.33229769 C593.23855204 1062.33463488 582.43788253 1062.33823768 571.63721291 1062.34199307 C534.65167913 1062.35482797 497.66614565 1062.36554691 460.6806097 1062.36899567 C458.35948245 1062.3692173 456.0383552 1062.36943908 453.71722795 1062.36966102 C451.39055277 1062.36988166 449.06387759 1062.37010214 446.73720241 1062.37032247 C442.06963746 1062.37076501 437.40207251 1062.37121213 432.73450756 1062.37166214 C431.57722551 1062.37177153 430.41994345 1062.37188092 429.22759225 1062.37199363 C391.71378124 1062.3756232 354.19998957 1062.39153978 316.68618597 1062.4148525 C277.00703944 1062.43946569 237.32790397 1062.45316921 197.64874959 1062.45436358 C193.29029385 1062.45453503 188.93183811 1062.45475046 184.57338238 1062.45499802 C183.50023961 1062.45505379 182.42709685 1062.45510955 181.32143461 1062.45516701 C164.07419628 1062.4563162 146.82697785 1062.46732697 129.57974624 1062.48188507 C112.23304636 1062.49627357 94.8863719 1062.49947379 77.5396677 1062.49144509 C67.24401629 1062.48699984 56.9484471 1062.4908051 46.65280656 1062.5066836 C39.76229013 1062.5164748 32.87183093 1062.51521607 25.98131495 1062.50524737 C22.06394075 1062.49988502 18.14672375 1062.49904812 14.22936293 1062.51175609 C-34.54100999 1062.65982542 -74.03546662 1051.90317673 -110.32213306 1018.13142776 C-111.33920338 1017.19556839 -111.33920338 1017.19556839 -112.37682056 1016.24080276 C-138.57926508 991.19589596 -154.30630182 953.17130781 -155.41451016 917.12686553 C-155.4524027 913.68730557 -155.45856661 910.24906164 -155.45356083 906.8092947 C-155.45561346 905.49049306 -155.4576661 904.17169141 -155.45978093 902.81292608 C-155.46531806 899.16070757 -155.46468062 895.50851263 -155.46300334 891.85629127 C-155.46226967 887.87953424 -155.46730121 883.90278372 -155.47157836 879.9260295 C-155.47914471 872.04229391 -155.48135073 864.15856509 -155.48190742 856.27482624 C-155.48282241 846.82987098 -155.48949399 837.38492196 -155.49625424 827.93996939 C-155.51230293 805.1130734 -155.5182163 782.28617809 -155.52300299 759.45927748 C-155.52534013 748.65694439 -155.52894292 737.85461183 -155.53269836 727.05227916 C-155.54553306 690.06230619 -155.55625216 653.07233351 -155.55970097 616.08235836 C-155.5599226 613.76097701 -155.56014438 611.43959565 -155.56036632 609.1182143 C-155.56058696 606.79128108 -155.56080744 604.46434786 -155.56102777 602.13741463 C-155.56147031 597.46932201 -155.56191743 592.80122938 -155.56236744 588.13313675 C-155.56247683 586.97572394 -155.56258622 585.81831113 -155.56269893 584.6258252 C-155.56632876 547.10502441 -155.58224645 509.58424296 -155.6055578 472.06344958 C-155.63016865 432.37837263 -155.64387439 392.69330672 -155.64506888 353.00822192 C-155.64524033 348.64950327 -155.64545576 344.29078462 -155.64570332 339.93206596 C-155.64575908 338.85885578 -155.64581485 337.78564559 -155.64587231 336.67991388 C-155.64702168 319.42875874 -155.65803398 302.17762347 -155.67259037 284.92647503 C-155.68697582 267.57755204 -155.6901808 250.22865446 -155.68215039 232.87972715 C-155.67770376 222.5816437 -155.68151597 212.28364244 -155.6973889 201.98556984 C-155.70717524 195.09470865 -155.70592595 188.2039047 -155.69595267 181.31304397 C-155.69058687 177.39465265 -155.68976483 173.47641855 -155.70246139 169.55804058 C-155.84980602 120.97312189 -144.95600787 81.26995282 -111.32213306 45.13142776 C-110.69822681 44.45338089 -110.07432056 43.77533401 -109.43150806 43.07674026 C-81.18427618 13.52396405 -40.06835824 -0.05831018 0 0 Z " fill="#00CCFF" transform="translate(172.32213306427002,11.868572235107422)"/>
<path d="M0 0 C2.99020436 2.61063297 5.75961347 5.38658145 8.5078125 8.25 C9.19359375 8.93964844 9.879375 9.62929688 10.5859375 10.33984375 C23.81136403 24.39904717 28.20265269 43.38491832 27.81640625 62.1015625 C26.9505968 81.4511462 17.48125848 98.03408489 3.72265625 111.34375 C-11.07632545 124.08079245 -28.69942018 129.45112425 -47.8671875 129.5625 C-48.7945874 129.56813965 -49.7219873 129.5737793 -50.67749023 129.57958984 C-69.47443154 129.38000026 -86.38092431 120.74863762 -99.85546875 108.04296875 C-113.57887366 93.50632503 -120.66158387 75.73573924 -120.8046875 55.875 C-120.81032715 55.13805908 -120.8159668 54.40111816 -120.82177734 53.6418457 C-120.55171279 33.34351884 -109.4355188 16.21750809 -95.5625 2.31640625 C-69.68783547 -21.78675635 -27.10641982 -22.27324976 0 0 Z " fill="#FCFEFF" transform="translate(850.4921875,625.75)"/>
<path d="M0 0 C0 9.9 0 19.8 0 30 C-10.88455772 28.91154423 -10.88455772 28.91154423 -15.8125 27.9375 C-26.05938592 26.21433947 -35.72871575 25.64842859 -45 31 C-47.73119837 33.23017317 -47.96033009 33.69397502 -48.4375 37.375 C-47.91901644 41.67100666 -46.99522473 42.94083779 -44 46 C-40.95000628 47.49387526 -40.95000628 47.49387526 -37.5 48.5 C-20.29121186 54.21844823 -2.72299088 60.10590679 6.7734375 76.47265625 C9.65668874 82.41362297 10.31508108 87.37773923 10.25 93.875 C10.26160156 95.02162109 10.26160156 95.02162109 10.2734375 96.19140625 C10.23552959 107.35528668 6.45759714 117.57648604 -1.25 125.8125 C-14.9113907 138.33544148 -32.47499607 141.39207768 -50.375 141.3125 C-52.19209473 141.31056641 -52.19209473 141.31056641 -54.04589844 141.30859375 C-64.94370482 141.19391018 -75.26391589 139.84047156 -86 138 C-86 127.11 -86 116.22 -86 105 C-82.968125 105.66 -79.93625 106.32 -76.8125 107 C-62.69266403 109.80725733 -44.18650325 112.49525999 -31 105 C-28.97470723 102.23823713 -28.07544681 100.44324998 -27.5 97.0625 C-28.18671065 92.85639725 -29.64736401 90.50766269 -33 88 C-38.32802353 85.4425487 -43.93907556 83.68470006 -49.5390625 81.82421875 C-63.83138059 76.95976016 -76.11382607 70.54631774 -83.5 56.75 C-87.84649983 47.65454666 -87.57395154 33.41489171 -84.375 23.9375 C-78.612324 10.59235558 -68.05942236 3.37407283 -55 -2 C-37.21326985 -7.36200232 -17.72712822 -3.11685771 0 0 Z " fill="#FCFEFF" transform="translate(542,614)"/>
<path d="M0 0 C0 12.54 0 25.08 0 38 C-4.03743465 36.65418845 -7.94020726 35.26570833 -11.875 33.68359375 C-22.70783327 30.19876687 -38.56814053 29.60839687 -48.9375 34.5625 C-51.64777134 36.18241763 -51.64777134 36.18241763 -54 38 C-54.67933594 38.50660156 -55.35867188 39.01320313 -56.05859375 39.53515625 C-62.77592728 45.41462882 -66.79654589 53.15654804 -67.58203125 62.0234375 C-68.22297231 75.37377076 -65.99163671 84.74785347 -57 95 C-46.89092825 102.57743893 -36.55606755 105.39017839 -24 104 C-12.96987388 102.41863828 -12.96987388 102.41863828 -3 98 C-2.01 98 -1.02 98 0 98 C0 110.21 0 122.42 0 135 C-20.34610665 142.62978999 -44.61572207 143.10720001 -64.76171875 134.421875 C-71.85933339 131.17008388 -78.16354257 127.17882842 -84 122 C-84.58910156 121.50371094 -85.17820313 121.00742187 -85.78515625 120.49609375 C-98.31502378 109.1078998 -106.1325613 91.43467381 -107.13720703 74.71679688 C-108.10530804 53.60490371 -103.69991178 34.88470981 -89.42578125 18.5234375 C-65.16713416 -6.71180569 -32.103685 -9.17248143 0 0 Z " fill="#FBFEFF" transform="translate(325,615)"/>
<path d="M0 0 C0 12.21 0 24.42 0 37 C-4.46834492 36.25527585 -7.47641422 35.48854481 -11.5625 33.9375 C-17.67582395 32.00993871 -23.35305522 31.59005123 -29.75 31.5625 C-30.62470947 31.55275146 -31.49941895 31.54300293 -32.40063477 31.53295898 C-42.82159188 31.66786129 -50.41902837 34.86160863 -58 42 C-66.25114985 50.98818067 -67.92929344 60.27192268 -67.53515625 72.15234375 C-66.80383855 81.47618622 -62.34402037 89.18938295 -55.625 95.625 C-45.89432756 103.39290432 -36.15850411 104.70003509 -24 104 C-15.74457712 102.72926081 -8.01199075 100.40359722 0 98 C0 110.54 0 123.08 0 136 C-24.49865865 142.22188156 -49.06081983 143.07574218 -71.81640625 130.91015625 C-87.97264907 121.21641056 -99.83352505 106.05798223 -105 87.875 C-110.41071193 64.95462307 -106.11254773 44.73511018 -94.12109375 24.890625 C-83.41542551 9.06679803 -66.75775057 -0.34938724 -48.2878418 -3.97045898 C-31.46372527 -6.81385195 -16.26957159 -4.64844903 0 0 Z " fill="#FBFEFF" transform="translate(693,615)"/>
<path d="M0 0 C4.3892661 2.7657782 6.84280728 5.57816199 8.625 10.5 C9.37210382 16.7259802 9.29885978 22.91881277 9.25610352 29.18164062 C9.26124562 31.09100509 9.26852909 33.0003648 9.27778625 34.90971375 C9.29627131 40.0812793 9.28337981 45.25232807 9.26369596 50.42387199 C9.24728432 55.8426865 9.25612586 61.26146893 9.26121521 66.68029785 C9.26573334 75.77929925 9.2498836 84.87809489 9.22192383 93.97705078 C9.1898733 104.48813437 9.18988865 114.9988469 9.2071386 125.50995684 C9.22301693 135.63235139 9.21626168 145.75461026 9.19920158 155.8769989 C9.19233926 160.1798617 9.19335517 164.48261546 9.20074654 168.78547668 C9.20842257 173.85488338 9.19624003 178.92386914 9.16889763 183.99320412 C9.16202657 185.850729 9.16190207 187.70829329 9.16911316 189.56581688 C9.17784059 192.1072911 9.16179724 194.64747599 9.1396637 197.18884277 C9.15202485 198.28380562 9.15202485 198.28380562 9.16463572 199.40088892 C9.07813907 204.80517915 7.57980093 208.96535377 4.625 213.5 C-0.25699913 218.13789917 -4.3990647 219.98080021 -11.0625 219.81640625 C-16.03843783 219.13557692 -19.33694526 216.65027688 -22.6875 212.9375 C-25.96008407 208.21043413 -26.66581139 205.40327415 -26.64242554 199.75215149 C-26.64695665 198.95485648 -26.65148776 198.15756147 -26.65615618 197.336106 C-26.66885063 194.6554088 -26.66717656 191.97491345 -26.66552734 189.29418945 C-26.67150959 187.37571449 -26.67831443 185.45724194 -26.68588257 183.53877258 C-26.70358424 178.31955845 -26.7082398 173.10040985 -26.70951414 167.8811686 C-26.71141152 163.52498466 -26.7187675 159.16881604 -26.72585833 154.81263798 C-26.74215698 144.53271758 -26.74702607 134.25283222 -26.74560547 123.97290039 C-26.74440477 113.37049692 -26.76548894 102.76829726 -26.7970928 92.16594535 C-26.82325593 83.06433921 -26.83397269 73.96279962 -26.83269465 64.86115617 C-26.83218487 59.42487984 -26.83787628 53.98878442 -26.85905075 48.55254555 C-26.87843275 43.43647149 -26.87855772 38.32075084 -26.86401749 33.20466423 C-26.861928 31.3293875 -26.86663859 29.45408866 -26.8787384 27.57884979 C-26.89421799 25.01307551 -26.88486527 22.44851561 -26.86947632 19.88276672 C-26.87976344 19.14548995 -26.89005057 18.40821317 -26.90064943 17.64859468 C-26.82063262 11.58639687 -25.02312331 6.32626734 -20.82248819 1.84304792 C-15.02825025 -3.31059451 -6.84674418 -2.88624566 0 0 Z " fill="#FCFEFF" transform="translate(749.375,332.5)"/>
<path d="M0 0 C5.74610104 2.39777689 8.98176323 5.19387259 11.37144649 11.00587952 C12.43224167 14.37131041 12.42314919 17.73815693 12.40113831 21.22886658 C12.40793498 22.02957929 12.41473164 22.830292 12.42173427 23.65526873 C12.44064163 26.32361725 12.43827369 28.99150424 12.43579102 31.65991211 C12.44477245 33.57898038 12.45498158 35.49804323 12.46632385 37.417099 C12.49278531 42.61956415 12.49985559 47.8218812 12.50177121 53.02440715 C12.50390562 56.276389 12.51031398 59.52833334 12.51826286 62.78030586 C12.54600107 74.12984732 12.55826998 85.47928319 12.5559082 96.82885742 C12.55410516 107.40191295 12.58577955 117.97450965 12.63313919 128.54744905 C12.67238 137.63216304 12.68845936 146.7167271 12.68654197 155.80152518 C12.68577759 161.22441952 12.69429998 166.64690572 12.72607613 172.0697155 C12.75514563 177.16956989 12.75534026 182.26862659 12.73352623 187.36850929 C12.73039211 189.2373458 12.73745758 191.10623222 12.7556076 192.97498322 C12.91048267 210.02883828 12.91048267 210.02883828 7.67750454 215.61759281 C2.49300196 219.89006628 -0.93411994 221.46468119 -7.84765625 221.3359375 C-13.46535151 220.45912844 -16.94415697 217.2025948 -20.58287048 213.05813599 C-24.83705111 206.05611323 -23.68478123 197.11246743 -23.63110352 189.19482422 C-23.63624548 187.27236268 -23.64352885 185.34990585 -23.65278625 183.42745972 C-23.67127052 178.2209068 -23.65838131 173.01486721 -23.63869596 167.80833578 C-23.6222884 162.35521968 -23.63112507 156.90213554 -23.63621521 151.44900513 C-23.64073303 142.29453344 -23.62488364 133.1402663 -23.59692383 123.98583984 C-23.56485429 113.40428066 -23.56489615 102.82308996 -23.5821386 92.24150455 C-23.59800352 82.05609893 -23.59127155 71.87082833 -23.57420158 61.68542862 C-23.56733173 57.3530022 -23.56836284 53.02068402 -23.57574654 48.68825912 C-23.58340928 43.58766979 -23.57128339 38.4874998 -23.54389763 33.38698196 C-23.53701337 31.5157165 -23.53691627 29.64441187 -23.54411316 27.77314758 C-23.55280831 25.21783502 -23.53685168 22.66381649 -23.5146637 20.10861206 C-23.52290446 19.3689202 -23.53114523 18.62922834 -23.53963572 17.86712158 C-23.44578251 12.00743209 -21.44021831 8.45773184 -17.3671875 4.35546875 C-11.51861089 -0.22234384 -7.40566279 -1.01474167 0 0 Z " fill="#FCFEFF" transform="translate(361,331)"/>
<path d="M0 0 C11.88 0 23.76 0 36 0 C36 46.53 36 93.06 36 141 C24.12 141 12.24 141 0 141 C0 94.47 0 47.94 0 0 Z " fill="#F8FDFF" transform="translate(373,612)"/>
<path d="M0 0 C7.51673903 5.88167797 11.97886226 13.674452 13.5859375 23.0234375 C14.57064703 33.2418167 12.45365407 42.55482406 6.3359375 50.8984375 C-0.55723536 58.99169565 -8.70157751 64.18855131 -19.33984375 65.51171875 C-31.00286198 66.26386987 -39.77335769 63.52933833 -48.8828125 55.9765625 C-56.59075584 48.09605326 -59.88542729 38.89356748 -60.1015625 28.0234375 C-59.9672614 17.36148441 -56.320857 9.81003578 -49.0390625 2.0234375 C-45.15199537 -1.58318686 -41.3713743 -4.11499935 -36.4140625 -5.9765625 C-34.8053125 -6.5953125 -34.8053125 -6.5953125 -33.1640625 -7.2265625 C-20.40685068 -9.77800486 -10.66366379 -7.07923899 0 0 Z " fill="#02CCFF" transform="translate(827.4140625,653.9765625)"/>
<path d="M0 0 C5.85848644 2.63726078 9.52376511 7.11511427 12 13 C12.55663205 16.10156994 12.56787767 19.1353071 12.54931641 22.28076172 C12.5646492 23.63586349 12.5646492 23.63586349 12.58029175 25.01834106 C12.60797183 27.98906343 12.60617907 30.95885192 12.6015625 33.9296875 C12.60934286 36.00562888 12.61801353 38.08156709 12.62753296 40.15750122 C12.64243342 44.50338065 12.64189275 48.84893506 12.63134766 53.19482422 C12.6197637 58.74882423 12.65361556 64.30148911 12.700037 69.85526848 C12.7295819 74.14144597 12.7312457 78.42730453 12.72501755 82.71356583 C12.72604056 84.76039396 12.73645194 86.80724076 12.75664139 88.85396957 C12.92350618 108.13601575 12.92350618 108.13601575 7.65927124 114.52615356 C2.78867672 118.8524555 -2.21985265 120.77687698 -8.76171875 120.44921875 C-14.29723052 119.33825216 -17.99145828 116.26714217 -21.4375 111.9375 C-24.19336503 106.75647374 -24.1632898 102.01414334 -24.19287109 96.22753906 C-24.20104858 95.34247681 -24.20922607 94.45741455 -24.21765137 93.54553223 C-24.24244687 90.61890328 -24.25900633 87.69232265 -24.2734375 84.765625 C-24.27876118 83.76428276 -24.28408485 82.76294052 -24.28956985 81.73125458 C-24.31627588 76.43119574 -24.33565904 71.13116026 -24.35009766 65.83105469 C-24.36343673 61.45063394 -24.39129275 57.07067902 -24.43212891 52.69042969 C-24.48149381 47.39488854 -24.50622333 42.0997699 -24.51332474 36.80400848 C-24.52002861 34.78982683 -24.5352281 32.77565428 -24.55921555 30.76160431 C-24.59093509 27.93725251 -24.5908937 25.11452318 -24.58349609 22.29003906 C-24.59990143 21.4648175 -24.61630676 20.63959595 -24.63320923 19.78936768 C-24.56848858 13.72599881 -22.79525828 9.72084313 -19 5 C-13.00859768 -0.43406256 -7.96975227 -1.03866446 0 0 Z " fill="#F7FDFF" transform="translate(458,397)"/>
<path d="M0 0 C4.00521387 2.88747977 7.46370991 6.48991981 9.6875 10.9375 C9.81235616 13.91547418 9.8764528 16.87090999 9.89624023 19.85009766 C9.91091591 21.23577438 9.91091591 21.23577438 9.92588806 22.64944458 C9.9558817 25.7168025 9.97724156 28.78411657 9.99609375 31.8515625 C10.00266558 32.89886913 10.0092374 33.94617577 10.01600838 35.02521896 C10.04862353 40.57164916 10.07306598 46.11806 10.0925293 51.66455078 C10.11032678 56.25272663 10.14511951 60.8402861 10.19506836 65.42822266 C10.25531088 70.96786348 10.2860114 76.50693364 10.29570198 82.04688644 C10.30425317 84.1559856 10.3230629 86.26506966 10.3524456 88.37398148 C10.3914415 91.33283795 10.39238376 94.28948183 10.38452148 97.24853516 C10.40452209 98.11430176 10.42452271 98.98006836 10.44512939 99.87207031 C10.36769214 106.38991355 8.24940268 110.31113265 3.6875 114.9375 C-0.85471777 118.58882739 -4.31211143 119.30680281 -10.22265625 119.21875 C-15.04210645 118.57015109 -18.40175689 115.94670183 -21.625 112.375 C-25.15376991 107.2778879 -25.61426305 104.00623996 -25.61889648 97.91137695 C-25.62722 96.98744644 -25.63554352 96.06351593 -25.64411926 95.11158752 C-25.66826155 92.04960948 -25.67699791 88.98784446 -25.68359375 85.92578125 C-25.69255904 83.7968896 -25.70168086 81.66799861 -25.71095276 79.53910828 C-25.72745832 75.07105986 -25.73514535 70.6030865 -25.73803711 66.13500977 C-25.74341304 60.41958726 -25.78105416 54.70487418 -25.82678127 48.98965168 C-25.85658324 44.58946689 -25.86376141 40.18945196 -25.86476326 35.78917503 C-25.86896168 33.6829015 -25.88138072 31.57662728 -25.90228081 29.47045326 C-25.9292508 26.51664428 -25.92435197 23.5644665 -25.91186523 20.6105957 C-25.92669952 19.74640015 -25.94153381 18.88220459 -25.95681763 17.99182129 C-25.88262078 11.80279437 -24.18904936 7.76215071 -20.3125 2.9375 C-14.56110327 -2.54002069 -7.25161025 -2.32598819 0 0 Z " fill="#FCFEFF" transform="translate(652.3125,398.0625)"/>
<path d="M0 0 C4.97906394 2.60025721 8.78543257 5.7855585 11 11 C11.25726891 12.99031639 11.25726891 12.99031639 11.26742554 15.12313843 C11.27595551 15.93613907 11.28448547 16.74913971 11.29327393 17.58677673 C11.29236755 18.469991 11.29146118 19.35320526 11.29052734 20.26318359 C11.29724457 21.20022629 11.30396179 22.13726898 11.31088257 23.10270691 C11.32988529 26.20133767 11.33378791 29.29975209 11.3359375 32.3984375 C11.34236378 34.55311167 11.34909201 36.70778495 11.35610962 38.86245728 C11.36808803 43.38000512 11.37178985 47.89747646 11.37060547 52.41503906 C11.37040224 58.20115241 11.39770659 63.98677484 11.43214989 69.77277184 C11.45439721 74.22348276 11.45844367 78.67407513 11.45738602 83.12483597 C11.45974515 85.25786659 11.46858621 87.39090032 11.48405075 89.52387619 C11.50366667 92.50894207 11.49788968 95.492944 11.48583984 98.47802734 C11.49707886 99.35719315 11.50831787 100.23635895 11.51989746 101.14216614 C11.46407902 106.58922164 10.60947287 109.67011719 7 114 C2.18716353 118.44261828 -2.2064283 120.58524192 -8.8828125 120.37109375 C-13.59607182 119.54496896 -17.3192627 117.13538525 -20.263237 113.395051 C-23.91412068 108.0627254 -24.71730902 104.05241247 -24.61523438 97.66577148 C-24.62078339 96.76876526 -24.6263324 95.87175903 -24.63204956 94.9475708 C-24.64378763 92.00485532 -24.61963191 89.06369975 -24.59375 86.12109375 C-24.59203739 84.06421478 -24.5921061 82.00733363 -24.59387207 79.95045471 C-24.59222219 75.64912913 -24.57358343 71.34832684 -24.54199219 67.04711914 C-24.50229104 61.54372522 -24.49795207 56.04101513 -24.50545502 50.53750515 C-24.50852949 46.29345984 -24.49638755 42.04956722 -24.47932434 37.80555916 C-24.47231189 35.77665223 -24.46916767 33.747728 -24.47001648 31.71880913 C-24.46821169 28.88050121 -24.44677234 26.04300148 -24.41992188 23.20483398 C-24.42285248 22.37295059 -24.42578308 21.5410672 -24.42880249 20.68397522 C-24.34138129 14.67161544 -23.39398144 9.67656722 -19.24609375 5.0390625 C-18.64925781 4.57242187 -18.05242188 4.10578125 -17.4375 3.625 C-16.83808594 3.14289063 -16.23867188 2.66078125 -15.62109375 2.1640625 C-10.96724533 -1.17773709 -5.49124035 -0.83343183 0 0 Z " fill="#FCFEFF" transform="translate(843,397)"/>
<path d="M0 0 C4.27642358 1.99352077 7.15776338 4.20867142 9.703125 8.28125 C10.54340714 11.00048978 10.83118226 13.45229108 10.84356689 16.29049683 C10.84927704 17.078255 10.85498718 17.86601318 10.86087036 18.67764282 C10.86198822 19.53280487 10.86310608 20.38796692 10.86425781 21.26904297 C10.87170517 22.63071594 10.87170517 22.63071594 10.87930298 24.01989746 C10.8939006 27.0210852 10.90072218 30.0222201 10.90625 33.0234375 C10.91200288 35.11085003 10.9177606 37.19826255 10.92352295 39.28567505 C10.93402572 43.66196946 10.93987331 48.03824554 10.94335938 52.41455078 C10.94884633 58.0189655 10.97288182 63.62313754 11.00133133 69.22747612 C11.01996384 73.53920193 11.02516361 77.85086932 11.02669525 82.16263199 C11.02972029 84.22867283 11.03774377 86.29471267 11.05088043 88.36071396 C11.06795554 91.2522195 11.06605716 94.14313232 11.05957031 97.03466797 C11.07339249 98.31133835 11.07339249 98.31133835 11.0874939 99.61380005 C11.05260615 104.58401113 10.45414652 107.97570631 7.703125 112.28125 C2.94429797 116.83317151 -0.59974409 118.97174317 -7.109375 119.71875 C-12.06199878 119.57831643 -15.58401974 117.44252809 -19.296875 114.28125 C-23.93093172 108.34015164 -24.45093541 103.73383956 -24.47387695 96.40698242 C-24.48044815 95.49934647 -24.48701935 94.59171051 -24.49378967 93.65657043 C-24.51351643 90.64995238 -24.52518337 87.64338423 -24.53515625 84.63671875 C-24.53923178 83.60989801 -24.5433073 82.58307728 -24.54750633 81.52514076 C-24.56836354 76.09122544 -24.58266728 70.65733536 -24.59204102 65.22338867 C-24.60310996 59.61102579 -24.63751667 53.99905888 -24.67721272 48.38683605 C-24.70335512 44.0708187 -24.71173071 39.7548961 -24.71532249 35.43880653 C-24.7201939 33.36996089 -24.73182358 31.30111963 -24.75036049 29.2323513 C-24.77470301 26.33581494 -24.77379584 23.44030847 -24.7668457 20.54370117 C-24.77965576 19.69101654 -24.79246582 18.83833191 -24.80566406 17.95980835 C-24.75161987 11.77349214 -23.11622015 8.12082968 -18.6640625 3.63671875 C-12.72908617 -1.00872083 -7.43258539 -2.32584305 0 0 Z " fill="#FCFEFF" transform="translate(266.296875,397.71875)"/>
<path d="M0 0 C5.83227045 2.68454588 9.56550969 7.07716944 12 13 C12.57996283 16.3967736 12.6084031 19.73516519 12.6015625 23.17578125 C12.61013275 24.1409819 12.618703 25.10618256 12.62753296 26.10063171 C12.63897628 28.13533402 12.64005198 30.17011811 12.63134766 32.20483398 C12.62503861 35.29359932 12.67194378 38.37850615 12.72265625 41.46679688 C12.83758693 59.28114212 12.83758693 59.28114212 7.6628418 66.35375977 C3.47184322 70.50291604 -0.77395786 72.16565473 -6.625 72.5 C-12.53392514 72.18580329 -16.08050764 69.11660262 -20.13037109 65.06079102 C-24.12836641 60.30659516 -23.83266602 55.57338012 -23.7265625 49.58984375 C-23.72755951 48.50417618 -23.72855652 47.41850861 -23.72958374 46.29994202 C-23.72491804 44.01295623 -23.70555362 41.72595868 -23.67236328 39.43920898 C-23.62509961 35.94486451 -23.63125975 32.45356823 -23.64453125 28.95898438 C-23.63337862 26.7317527 -23.61915943 24.50453383 -23.6015625 22.27734375 C-23.60338531 21.23658188 -23.60520813 20.19582001 -23.60708618 19.1235199 C-23.4675435 11.96493634 -22.26343356 8.6543657 -17.5 3.3203125 C-12.19799675 -0.90472134 -6.54842454 -1.21750257 0 0 Z " fill="#FBFEFF" transform="translate(554,445)"/>
<path d="M0 0 C4.69231674 2.33116694 8.12788251 5.63771141 11 10 C11.8811455 12.84384159 12.13427234 15.42915362 12.16113281 18.39794922 C12.17074036 19.25919403 12.1803479 20.12043884 12.19024658 21.00778198 C12.19449646 21.9307608 12.19874634 22.85373962 12.203125 23.8046875 C12.20882507 24.76142365 12.21452515 25.71815979 12.22039795 26.70388794 C12.22983484 28.72624612 12.23637672 30.74861958 12.24023438 32.77099609 C12.24994249 35.85671921 12.28097944 38.94177678 12.3125 42.02734375 C12.3190303 43.99478772 12.32428067 45.96223645 12.328125 47.9296875 C12.3404718 48.84861786 12.3528186 49.76754822 12.36553955 50.71432495 C12.34254695 57.36096229 11.11963389 61.5366417 6.6875 66.6875 C2.0336452 70.69197971 -1.93430204 72.5682366 -8.0546875 72.27734375 C-13.93934236 71.43836685 -17.17130687 68.06268784 -20.80078125 63.71875 C-22.92943846 60.66790579 -23.1341708 57.95074034 -23.17700195 54.34838867 C-23.18983719 53.40698532 -23.20267242 52.46558197 -23.21589661 51.49565125 C-23.22328354 50.48001602 -23.23067047 49.4643808 -23.23828125 48.41796875 C-23.246353 47.37103348 -23.25442474 46.32409821 -23.26274109 45.24543762 C-23.27657518 43.02879489 -23.28730035 40.81213093 -23.29516602 38.59545898 C-23.3123804 35.21101403 -23.35627371 31.82754553 -23.40039062 28.44335938 C-23.41051764 26.28906968 -23.41903372 24.13477168 -23.42578125 21.98046875 C-23.44328934 20.97090622 -23.46079742 19.96134369 -23.47883606 18.92118835 C-23.45696887 11.8139746 -22.22858365 8.61534107 -17.5 3.3203125 C-12.20847087 -0.89637477 -6.53673172 -1.23972498 0 0 Z " fill="#FBFEFF" transform="translate(169,445)"/>
<path d="M0 0 C4.9995304 2.33060815 8.20200646 5.27901291 10.703125 10.28125 C10.80798505 11.79126203 10.85180883 13.30573857 10.86425781 14.81933594 C10.87386536 15.76081482 10.8834729 16.7022937 10.89337158 17.67230225 C10.89762146 18.69309875 10.90187134 19.71389526 10.90625 20.765625 C10.91195007 21.81397522 10.91765015 22.86232544 10.92352295 23.94244385 C10.93298234 26.16506946 10.93951064 28.38770915 10.94335938 30.61035156 C10.9530458 34.0035063 10.98405292 37.39605051 11.015625 40.7890625 C11.02215689 42.94791307 11.02740663 45.10676797 11.03125 47.265625 C11.0435968 48.27832458 11.0559436 49.29102417 11.06866455 50.33441162 C11.04934116 56.47756431 10.56040354 61.14205331 6.23828125 65.890625 C1.09186611 69.87670782 -2.39674797 71.8416156 -8.921875 71.6484375 C-13.93657647 70.87313826 -17.68122812 68.41563696 -20.73472595 64.38174438 C-24.24407978 58.41627307 -25.02504673 53.66218638 -24.92578125 46.8046875 C-24.92819321 45.83520172 -24.93060516 44.86571594 -24.93309021 43.86685181 C-24.93211674 41.83144003 -24.91884368 39.79600011 -24.89379883 37.76074219 C-24.85938647 34.65728446 -24.87319328 31.55666333 -24.89257812 28.453125 C-24.88568128 26.4661338 -24.87601037 24.47914989 -24.86328125 22.4921875 C-24.86824112 21.57222992 -24.87320099 20.65227234 -24.87831116 19.70443726 C-24.75619715 12.98541009 -23.37114707 8.56145417 -18.6640625 3.5390625 C-12.69534716 -0.99216119 -7.39526829 -2.31416559 0 0 Z " fill="#FBFEFF" transform="translate(939.296875,445.71875)"/>
</svg>
