<?xml version="1.0" encoding="UTF-8"?>
<svg version="1.1" xmlns="http://www.w3.org/2000/svg" width="512" height="512">
<path d="M0 0 C1.08595459 -0.04036377 1.08595459 -0.04036377 2.19384766 -0.08154297 C6.06725049 -0.05275479 7.6986431 0.47117256 10.75390625 2.921875 C12.8125 5.5625 12.8125 5.5625 13.5625 8.375 C12.19429218 14.18988322 7.68072646 17.77224626 3.47265625 21.8046875 C-3.44642811 28.47236753 -8.88766709 35.59594863 -14.1875 43.5625 C-14.765 44.41714844 -15.3425 45.27179688 -15.9375 46.15234375 C-31.95340759 71.21890745 -36.34617946 104.92377749 -30.02368164 133.63427734 C-22.64881203 164.04899922 -4.42632376 190.84185641 22.125 207.75 C50.37550996 224.41141848 83.0692761 230.77041604 115.34375 222.81640625 C140.85975912 215.8829468 160.29753136 201.83518662 178.41479492 182.89428711 C180.49809747 180.90923638 181.73409473 180.5712117 184.625 180.25 C188.73250318 180.65269639 190.02722957 181.52063011 192.8125 184.5625 C193.52888042 187.5937602 193.42512701 190.52539866 193.3125 193.625 C193.28373779 194.95640015 193.28373779 194.95640015 193.25439453 196.31469727 C191.70236395 243.66001921 168.12701441 288.85744694 134.17529297 321.11816406 C103.99161443 348.76407105 61.64971742 368.37525551 20.34375 368.80078125 C19.55418411 368.8105751 18.76461823 368.82036896 17.9511261 368.83045959 C0.24571747 369.0047534 -16.89040999 368.83116537 -34.1875 364.5625 C-35.46947266 364.24901611 -35.46947266 364.24901611 -36.77734375 363.92919922 C-66.13585151 356.47227231 -92.68300857 342.15280763 -114.9140625 321.6484375 C-117.0264424 319.7102745 -119.18748072 317.85226729 -121.375 316 C-152.3262708 288.96734566 -171.78497546 244.02180272 -175.1875 203.5625 C-176.39131445 182.80293963 -176.16005103 161.83755291 -171.1875 141.5625 C-170.97851074 140.70640137 -170.76952148 139.85030273 -170.55419922 138.96826172 C-163.10266272 109.63655811 -148.55955623 81.95005857 -127.5625 60.078125 C-125.16219422 57.6062418 -125.16219422 57.6062418 -123.09375 54.93359375 C-120.19057029 51.32246653 -116.71643708 48.544946 -113.1875 45.5625 C-112.33285156 44.80839844 -111.47820312 44.05429688 -110.59765625 43.27734375 C-97.78197545 32.18448424 -83.53925886 23.6636397 -68.1875 16.5625 C-66.49947266 15.76392578 -66.49947266 15.76392578 -64.77734375 14.94921875 C-44.59606778 5.81453594 -22.1678795 0.47440091 0 0 Z " fill="#000000" transform="translate(247.1875,71.4375)"/>
</svg>
