<?xml version="1.0" encoding="UTF-8"?>
<svg version="1.1" xmlns="http://www.w3.org/2000/svg" width="200" height="200">
<path d="M0 0 C8.11154726 6.29268314 14.69029527 16.68015794 16 27 C16.82685842 41.80394602 14.83631138 53.34208992 5.21875 65.1953125 C-2.51095054 73.52691595 -12.36664965 78.5566692 -23.69921875 79.21484375 C-38.06928537 79.67911007 -49.34284256 76.25810217 -60.1875 66.5 C-69.73614666 56.46615788 -72.43279599 44.38097184 -72.2109375 31.01171875 C-71.76921941 19.32800264 -65.8673899 8.87198903 -57.48046875 0.890625 C-40.01402807 -12.42237861 -17.72114016 -12.71615476 0 0 Z M-51 14 C-56.65106416 21.50118984 -59.96857191 29.47570958 -59 39 C-56.46330051 48.59910148 -52.57644431 56.0134114 -44.0625 61.375 C-36.71535274 65.41648011 -29.5886456 67.43801407 -21.328125 65.3125 C-11.46858437 62.04414399 -5.22824389 57.6129624 -0.1875 48.44921875 C3.6224675 40.59116078 4.08582057 33.67764206 1.375 25.5 C-2.46261924 15.86597669 -7.65629325 10.53028206 -17 6 C-28.99577829 1.4498772 -42.03224115 4.816387 -51 14 Z " fill="#000000" transform="translate(128,65)"/>
<path d="M0 0 C3.18086518 1.50946511 5.29869906 3.07941825 7.75 5.625 C8.67039063 6.57246094 8.67039063 6.57246094 9.609375 7.5390625 C10.06828125 8.02117188 10.5271875 8.50328125 11 9 C6.47008204 14.43733055 1.65705784 19.46458931 -3.375 24.4375 C-4.11105469 25.16904297 -4.84710938 25.90058594 -5.60546875 26.65429688 C-7.40136074 28.43852723 -9.19955985 30.22036124 -11 32 C-13.82836101 30.63236861 -16.03539332 29.30605007 -18.3125 27.125 C-18.84488281 26.63257812 -19.37726563 26.14015625 -19.92578125 25.6328125 C-21 24 -21 24 -20.84667969 22.19580078 C-19.67635788 19.16065823 -17.84502181 17.50832329 -15.52734375 15.234375 C-14.62822266 14.34492187 -13.72910156 13.45546875 -12.80273438 12.5390625 C-11.85720703 11.61867188 -10.91167969 10.69828125 -9.9375 9.75 C-8.97783027 8.80538327 -8.01883771 7.86007805 -7.06054688 6.9140625 C-4.71361172 4.60250828 -2.35996609 2.2982366 0 0 Z " fill="#000000" transform="translate(156,33)"/>
<path d="M0 0 C4.62 0 9.24 0 14 0 C14 10.56 14 21.12 14 32 C9.38 32 4.76 32 0 32 C0 21.44 0 10.88 0 0 Z " fill="#000000" transform="translate(93,156)"/>
<path d="M0 0 C10.56 0 21.12 0 32 0 C32 4.62 32 9.24 32 14 C21.44 14 10.88 14 0 14 C0 9.38 0 4.76 0 0 Z " fill="#000000" transform="translate(156,93)"/>
<path d="M0 0 C10.56 0 21.12 0 32 0 C32 4.62 32 9.24 32 14 C21.44 14 10.88 14 0 14 C0 9.38 0 4.76 0 0 Z " fill="#000000" transform="translate(12,93)"/>
<path d="M0 0 C4.62 0 9.24 0 14 0 C14 10.56 14 21.12 14 32 C9.38 32 4.76 32 0 32 C0 21.44 0 10.88 0 0 Z " fill="#000000" transform="translate(93,12)"/>
<path d="M0 0 C3.66752005 1.5391801 5.98580573 3.75485452 8.765625 6.5703125 C10.09980469 7.91416016 10.09980469 7.91416016 11.4609375 9.28515625 C12.38132813 10.22230469 13.30171875 11.15945312 14.25 12.125 C15.19484856 13.07988637 16.14015633 14.03431859 17.0859375 14.98828125 C19.39518338 17.32109087 21.69963203 19.65844086 24 22 C23.08877273 23.10865985 22.17073341 24.21172219 21.25 25.3125 C20.73953125 25.92738281 20.2290625 26.54226562 19.703125 27.17578125 C18 29 18 29 14 32 C6.74 24.74 -0.52 17.48 -8 10 C-5.77502475 5.55004949 -3.55366005 3.39915309 0 0 Z " fill="#000000" transform="translate(143,135)"/>
<path d="M0 0 C4.44995051 2.22497525 6.60084691 4.44633995 10 8 C8.4608199 11.66752005 6.24514548 13.98580573 3.4296875 16.765625 C2.53378906 17.65507812 1.63789062 18.54453125 0.71484375 19.4609375 C-0.22230469 20.38132813 -1.15945312 21.30171875 -2.125 22.25 C-3.07988637 23.19484856 -4.03431859 24.14015633 -4.98828125 25.0859375 C-7.32109087 27.39518338 -9.65844086 29.69963203 -12 32 C-13.10865985 31.08877273 -14.21172219 30.17073341 -15.3125 29.25 C-15.92738281 28.73953125 -16.54226562 28.2290625 -17.17578125 27.703125 C-19 26 -19 26 -22 22 C-14.74 14.74 -7.48 7.48 0 0 Z " fill="#000000" transform="translate(55,135)"/>
<path d="M0 0 C5.43733055 4.52991796 10.46458931 9.34294216 15.4375 14.375 C16.16904297 15.11105469 16.90058594 15.84710938 17.65429688 16.60546875 C19.43852723 18.40136074 21.22036124 20.19955985 23 22 C20.95933017 26.26615504 18.41446998 28.73398524 15 32 C11.33247995 30.4608199 9.01419427 28.24514548 6.234375 25.4296875 C5.34492187 24.53378906 4.45546875 23.63789062 3.5390625 22.71484375 C2.61867188 21.77769531 1.69828125 20.84054688 0.75 19.875 C-0.19484856 18.92011363 -1.14015633 17.96568141 -2.0859375 17.01171875 C-4.39518338 14.67890913 -6.69963203 12.34155914 -9 10 C-8.06409496 8.8944811 -7.12620142 7.79064547 -6.1875 6.6875 C-5.66542969 6.07261719 -5.14335938 5.45773438 -4.60546875 4.82421875 C-3.12827531 3.14575321 -1.59960869 1.56117966 0 0 Z " fill="#000000" transform="translate(42,33)"/>
</svg>
