<?xml version="1.0" encoding="UTF-8"?>
<svg version="1.1" xmlns="http://www.w3.org/2000/svg" width="665" height="665">
<path d="M0 0 C100.65 0 201.3 0 305 0 C305 100.65 305 201.3 305 305 C204.35 305 103.7 305 0 305 C0 204.35 0 103.7 0 0 Z " fill="#FFC10D" transform="translate(350,347)"/>
<path d="M0 0 C100.65 0 201.3 0 305 0 C305 100.65 305 201.3 305 305 C204.35 305 103.7 305 0 305 C0 204.35 0 103.7 0 0 Z " fill="#00ADEE" transform="translate(15,347)"/>
<path d="M0 0 C100.65 0 201.3 0 305 0 C305 100.65 305 201.3 305 305 C204.35 305 103.7 305 0 305 C0 204.35 0 103.7 0 0 Z " fill="#8DC63F" transform="translate(350,12)"/>
<path d="M0 0 C100.65 0 201.3 0 305 0 C305 100.65 305 201.3 305 305 C204.35 305 103.7 305 0 305 C0 204.35 0 103.7 0 0 Z " fill="#F26521" transform="translate(15,12)"/>
</svg>
